<svg width="164" height="48" viewBox="0 0 164 48" fill="none" xmlns="http://www.w3.org/2000/svg">
<path d="M94.1356 0.347168C80.8886 0.347168 71.1328 10.4281 71.1328 23.9027C71.1328 36.759 79.2427 47.4548 94.5436 47.4548C101.937 47.4548 108.922 44.4736 112.824 39.95C113.541 39.1256 114.055 38.1983 114.055 37.1713C114.07 36.6421 113.977 36.1156 113.781 35.6238C113.585 35.132 113.292 34.6854 112.918 34.3112C112.544 33.9373 112.097 33.6438 111.606 33.4487C111.115 33.2536 110.589 33.1609 110.061 33.1765C108.829 33.1765 107.701 33.898 106.878 34.7188C103.49 37.9098 100.305 39.7612 94.9653 39.7612C86.4439 39.7612 81.6155 34.4097 81.1046 27.3136H111.806C114.58 27.3136 115.503 25.6681 115.503 24.0229C115.492 10.8505 107.074 0.347168 94.1356 0.347168ZM81.3002 19.4788C82.2225 13.1039 87.0474 8.06149 94.1356 8.06149C101.117 8.06149 105.736 13.3064 106.559 19.4788H81.3002Z" fill="currentColor"/>
<path d="M139.976 0.347168C127.038 0.347168 118.633 10.8505 118.633 24.0059C118.633 25.6511 119.556 27.2963 122.33 27.2963H153.035C152.52 34.3926 147.692 39.7405 139.171 39.7405C133.831 39.7405 130.646 37.8925 127.258 34.7017C126.438 33.8807 125.306 33.1595 124.075 33.1595C123.545 33.1422 123.016 33.2344 122.522 33.4297C122.029 33.6253 121.58 33.9203 121.205 34.2961C120.83 34.6722 120.535 35.1215 120.34 35.6159C120.145 36.1103 120.053 36.6397 120.07 37.1713C120.07 38.2016 120.584 39.1256 121.301 39.95C125.204 44.4736 132.185 47.4548 139.582 47.4548C154.883 47.4548 162.993 36.759 162.993 23.9027C162.979 10.4281 153.223 0.347168 139.976 0.347168ZM127.549 19.4788C128.372 13.2961 132.991 8.06149 139.973 8.06149C147.061 8.06149 151.886 13.1039 152.812 19.4788H127.549Z" fill="currentColor"/>
<path d="M48.7507 0.240234C42.8388 0.240234 37.5442 3.08088 34.0054 7.53576C30.4697 3.07056 25.1787 0.240234 19.2598 0.240234C8.62946 0.240234 0.00170224 9.40079 0.00170224 20.6566V42.9826C-0.0148578 43.5874 0.08954 44.1893 0.30914 44.7528C0.52874 45.3166 0.858981 45.8302 1.28018 46.2638C1.70114 46.6975 2.2049 47.0422 2.76146 47.2776C3.31778 47.513 3.91562 47.6342 4.5197 47.6342C5.12354 47.6342 5.72162 47.513 6.27794 47.2776C6.83426 47.0422 7.33802 46.6975 7.75922 46.2638C8.18042 45.8302 8.51042 45.3166 8.73002 44.7528C8.94962 44.1893 9.05426 43.5874 9.03746 42.9826V20.6566C9.03746 14.3916 13.6224 9.29424 19.2598 9.29424C24.8974 9.29424 29.4787 14.388 29.4821 20.653V42.979C29.4821 44.1792 29.958 45.33 30.8047 46.1789C31.6517 47.0278 32.8003 47.5051 33.9984 47.5061C34.8987 47.5051 35.7785 47.2361 36.5256 46.7333C36.6456 46.6507 36.7623 46.565 36.8686 46.4722C37.3824 46.0471 37.7962 45.5136 38.0801 44.9097C38.364 44.3059 38.5111 43.6466 38.5111 42.979V20.653C38.5111 14.388 43.0961 9.29424 48.7335 9.29424C54.3711 9.29424 58.9661 14.3916 58.9661 20.6566V42.9826C58.9661 44.183 59.4423 45.3346 60.2899 46.1837C61.1374 47.0326 62.287 47.5094 63.4858 47.5094C64.6843 47.5094 65.8339 47.0326 66.6816 46.1837C67.5293 45.3346 68.0054 44.183 68.0054 42.9826V20.6566C68.0088 9.40079 59.3674 0.240234 48.7507 0.240234Z" fill="currentColor"/>
</svg>
