<svg width="364" height="281" viewBox="0 0 364 281" fill="none" xmlns="http://www.w3.org/2000/svg">
    <path fill-rule="evenodd" clip-rule="evenodd"
        d="M180.87 0C206.478 0 228.75 13.7476 240.151 33.9922C249.706 29.2219 260.559 26.5267 272.065 26.5267C310.399 26.5267 341.475 56.4391 341.475 93.3379C341.475 99.0157 340.739 104.528 339.354 109.791C354.254 121.593 363.767 139.548 363.767 159.658C363.767 179.872 354.155 197.91 339.122 209.708C339.338 211.828 339.448 213.978 339.448 216.154C339.448 251.967 309.507 281 272.572 281C252.839 281 235.103 272.713 222.862 259.533C205.09 272.396 183.01 280.017 159.085 280.017C128.738 280.017 101.358 267.756 81.9755 248.087C74.4897 251.569 66.1021 253.52 57.2447 253.52C25.6294 253.52 0 228.669 0 198.013C0 177.536 11.4354 159.649 28.4517 150.028C17.03 137.154 10.1332 120.444 10.1332 102.182C10.1332 61.4844 44.3846 28.4928 86.6358 28.4928C98.782 28.4928 110.267 31.2193 120.467 36.0716C131.484 14.6948 154.394 0 180.87 0Z"
        fill="white" />
    <path
        d="M43.9018 117V106.878H44.9938V117H43.9018ZM50.9569 117V109.762H52.0069V110.819C52.1282 110.609 52.2939 110.415 52.5039 110.238C52.7186 110.061 52.9776 109.918 53.2809 109.811C53.5889 109.704 53.9342 109.65 54.3169 109.65C54.7836 109.65 55.2082 109.743 55.5909 109.93C55.9782 110.112 56.2862 110.397 56.5149 110.784C56.7436 111.171 56.8579 111.668 56.8579 112.275V117H55.7659V112.373C55.7659 111.757 55.6096 111.302 55.2969 111.008C54.9842 110.714 54.5712 110.567 54.0579 110.567C53.7079 110.567 53.3789 110.623 53.0709 110.735C52.7629 110.847 52.5156 111.017 52.3289 111.246C52.1422 111.475 52.0489 111.762 52.0489 112.107V117H50.9569ZM61.9646 117.14C61.302 117.14 60.7163 116.995 60.2076 116.706C59.7036 116.412 59.3093 115.99 59.0246 115.439C58.74 114.888 58.5976 114.226 58.5976 113.451C58.5976 112.681 58.726 112.009 58.9826 111.435C59.2393 110.856 59.6126 110.411 60.1026 110.098C60.5926 109.781 61.183 109.622 61.8736 109.622C62.541 109.622 63.1056 109.767 63.5676 110.056C64.0296 110.341 64.382 110.749 64.6246 111.281C64.8673 111.813 64.9886 112.448 64.9886 113.185V113.633H59.7176C59.713 114.118 59.79 114.559 59.9486 114.956C60.112 115.353 60.3593 115.67 60.6906 115.908C61.022 116.146 61.4396 116.265 61.9436 116.265C62.4383 116.265 62.863 116.151 63.2176 115.922C63.5723 115.689 63.794 115.36 63.8826 114.935H64.9326C64.844 115.42 64.6503 115.826 64.3516 116.153C64.053 116.48 63.6936 116.727 63.2736 116.895C62.8583 117.058 62.422 117.14 61.9646 117.14ZM59.7246 112.856H63.9246C63.9246 112.408 63.85 112.004 63.7006 111.645C63.5513 111.286 63.3226 111.001 63.0146 110.791C62.7113 110.581 62.3263 110.476 61.8596 110.476C61.3696 110.476 60.966 110.595 60.6486 110.833C60.3313 111.066 60.0956 111.365 59.9416 111.729C59.7923 112.093 59.72 112.469 59.7246 112.856ZM69.867 117.14C69.2043 117.14 68.6186 116.995 68.11 116.706C67.606 116.412 67.2116 115.99 66.927 115.439C66.6423 114.888 66.5 114.226 66.5 113.451C66.5 112.681 66.6283 112.009 66.885 111.435C67.1416 110.856 67.515 110.411 68.005 110.098C68.495 109.781 69.0853 109.622 69.776 109.622C70.4433 109.622 71.008 109.767 71.47 110.056C71.932 110.341 72.2843 110.749 72.527 111.281C72.7696 111.813 72.891 112.448 72.891 113.185V113.633H67.62C67.6153 114.118 67.6923 114.559 67.851 114.956C68.0143 115.353 68.2616 115.67 68.593 115.908C68.9243 116.146 69.342 116.265 69.846 116.265C70.3406 116.265 70.7653 116.151 71.12 115.922C71.4746 115.689 71.6963 115.36 71.785 114.935H72.835C72.7463 115.42 72.5526 115.826 72.254 116.153C71.9553 116.48 71.596 116.727 71.176 116.895C70.7606 117.058 70.3243 117.14 69.867 117.14ZM67.627 112.856H71.827C71.827 112.408 71.7523 112.004 71.603 111.645C71.4536 111.286 71.225 111.001 70.917 110.791C70.6136 110.581 70.2286 110.476 69.762 110.476C69.272 110.476 68.8683 110.595 68.551 110.833C68.2336 111.066 67.998 111.365 67.844 111.729C67.6946 112.093 67.6223 112.469 67.627 112.856ZM77.3843 117.14C76.4557 117.14 75.716 116.823 75.1653 116.188C74.6147 115.549 74.3393 114.604 74.3393 113.353C74.3393 112.602 74.449 111.948 74.6683 111.393C74.8877 110.833 75.2167 110.399 75.6553 110.091C76.0987 109.778 76.6517 109.622 77.3143 109.622C77.683 109.622 78.0073 109.671 78.2873 109.769C78.5673 109.862 78.8053 109.981 79.0013 110.126C79.202 110.271 79.3607 110.418 79.4773 110.567C79.5987 110.716 79.6873 110.845 79.7433 110.952V106.598H80.8423V117H79.9813L79.8693 115.516C79.8273 115.642 79.7573 115.796 79.6593 115.978C79.5613 116.16 79.419 116.34 79.2323 116.517C79.0457 116.694 78.8007 116.844 78.4973 116.965C78.1987 117.082 77.8277 117.14 77.3843 117.14ZM77.5593 116.272C78.348 116.272 78.908 116.039 79.2393 115.572C79.5753 115.101 79.7433 114.338 79.7433 113.283C79.734 112.7 79.657 112.2 79.5123 111.785C79.3723 111.37 79.146 111.052 78.8333 110.833C78.5253 110.609 78.11 110.497 77.5873 110.497C76.9527 110.497 76.437 110.721 76.0403 111.169C75.6437 111.617 75.4453 112.322 75.4453 113.283C75.4453 114.216 75.6227 114.949 75.9773 115.481C76.332 116.008 76.8593 116.272 77.5593 116.272ZM89.0718 117.028C88.6098 117.028 88.2505 116.963 87.9938 116.832C87.7418 116.701 87.5645 116.508 87.4618 116.251C87.3591 115.994 87.3078 115.672 87.3078 115.285V110.581H86.1318V109.762H87.3358L87.5948 107.676H88.4068V109.755H90.0448V110.581H88.4068V115.25C88.4068 115.53 88.4325 115.735 88.4838 115.866C88.5398 115.992 88.6355 116.074 88.7708 116.111C88.9108 116.144 89.1045 116.16 89.3518 116.16H90.0938V116.916C90.0051 116.949 89.8721 116.977 89.6948 117C89.5221 117.019 89.3145 117.028 89.0718 117.028ZM94.5478 117.14C93.8898 117.14 93.3158 117 92.8258 116.72C92.3358 116.435 91.9554 116.015 91.6848 115.46C91.4141 114.905 91.2788 114.221 91.2788 113.409C91.2788 112.653 91.4024 111.99 91.6498 111.421C91.8971 110.852 92.2634 110.411 92.7488 110.098C93.2388 109.781 93.8384 109.622 94.5478 109.622C95.2011 109.622 95.7704 109.767 96.2558 110.056C96.7411 110.341 97.1168 110.765 97.3828 111.33C97.6534 111.89 97.7888 112.583 97.7888 113.409C97.7888 114.146 97.6651 114.795 97.4178 115.355C97.1751 115.915 96.8134 116.354 96.3328 116.671C95.8568 116.984 95.2618 117.14 94.5478 117.14ZM94.5478 116.258C95.0004 116.258 95.3878 116.146 95.7098 115.922C96.0318 115.698 96.2768 115.371 96.4448 114.942C96.6128 114.513 96.6968 113.992 96.6968 113.381C96.6968 112.83 96.6221 112.338 96.4728 111.904C96.3281 111.47 96.0971 111.129 95.7798 110.882C95.4624 110.63 95.0518 110.504 94.5478 110.504C94.0904 110.504 93.6984 110.616 93.3718 110.84C93.0451 111.059 92.7954 111.384 92.6228 111.813C92.4548 112.242 92.3708 112.765 92.3708 113.381C92.3708 113.932 92.4454 114.424 92.5948 114.858C92.7441 115.287 92.9798 115.628 93.3018 115.88C93.6238 116.132 94.0391 116.258 94.5478 116.258ZM105.595 117.14C104.951 117.14 104.382 117 103.887 116.72C103.392 116.44 103.005 116.022 102.725 115.467C102.45 114.912 102.312 114.223 102.312 113.402C102.312 112.651 102.436 111.993 102.683 111.428C102.935 110.859 103.306 110.415 103.796 110.098C104.286 109.781 104.886 109.622 105.595 109.622C106.09 109.622 106.54 109.715 106.946 109.902C107.352 110.089 107.688 110.357 107.954 110.707C108.225 111.052 108.395 111.47 108.465 111.96H107.471C107.424 111.689 107.319 111.447 107.156 111.232C106.993 111.013 106.778 110.84 106.512 110.714C106.251 110.588 105.947 110.525 105.602 110.525C104.944 110.525 104.407 110.761 103.992 111.232C103.577 111.699 103.369 112.42 103.369 113.395C103.369 114.268 103.556 114.968 103.929 115.495C104.307 116.018 104.869 116.279 105.616 116.279C105.957 116.279 106.258 116.216 106.519 116.09C106.785 115.959 107 115.787 107.163 115.572C107.326 115.353 107.431 115.112 107.478 114.851H108.458C108.388 115.327 108.218 115.738 107.947 116.083C107.681 116.424 107.345 116.685 106.939 116.867C106.533 117.049 106.085 117.14 105.595 117.14ZM110.252 117V106.598H111.309V110.826C111.435 110.621 111.603 110.429 111.813 110.252C112.028 110.075 112.284 109.932 112.583 109.825C112.886 109.713 113.232 109.657 113.619 109.657C114.095 109.657 114.522 109.743 114.9 109.916C115.283 110.089 115.586 110.334 115.81 110.651C116.034 110.968 116.146 111.342 116.146 111.771V117H115.054V112.016C115.054 111.559 114.898 111.204 114.585 110.952C114.272 110.695 113.859 110.567 113.346 110.567C112.996 110.567 112.667 110.625 112.359 110.742C112.056 110.854 111.811 111.024 111.624 111.253C111.437 111.477 111.344 111.764 111.344 112.114V117H110.252ZM121.26 117.14C120.597 117.14 120.011 116.995 119.503 116.706C118.999 116.412 118.604 115.99 118.32 115.439C118.035 114.888 117.893 114.226 117.893 113.451C117.893 112.681 118.021 112.009 118.278 111.435C118.534 110.856 118.908 110.411 119.398 110.098C119.888 109.781 120.478 109.622 121.169 109.622C121.836 109.622 122.401 109.767 122.863 110.056C123.325 110.341 123.677 110.749 123.92 111.281C124.162 111.813 124.284 112.448 124.284 113.185V113.633H119.013C119.008 114.118 119.085 114.559 119.244 114.956C119.407 115.353 119.654 115.67 119.986 115.908C120.317 116.146 120.735 116.265 121.239 116.265C121.733 116.265 122.158 116.151 122.513 115.922C122.867 115.689 123.089 115.36 123.178 114.935H124.228C124.139 115.42 123.945 115.826 123.647 116.153C123.348 116.48 122.989 116.727 122.569 116.895C122.153 117.058 121.717 117.14 121.26 117.14ZM119.02 112.856H123.22C123.22 112.408 123.145 112.004 122.996 111.645C122.846 111.286 122.618 111.001 122.31 110.791C122.006 110.581 121.621 110.476 121.155 110.476C120.665 110.476 120.261 110.595 119.944 110.833C119.626 111.066 119.391 111.365 119.237 111.729C119.087 112.093 119.015 112.469 119.02 112.856ZM129.015 117.14C128.371 117.14 127.802 117 127.307 116.72C126.812 116.44 126.425 116.022 126.145 115.467C125.87 114.912 125.732 114.223 125.732 113.402C125.732 112.651 125.856 111.993 126.103 111.428C126.355 110.859 126.726 110.415 127.216 110.098C127.706 109.781 128.306 109.622 129.015 109.622C129.51 109.622 129.96 109.715 130.366 109.902C130.772 110.089 131.108 110.357 131.374 110.707C131.645 111.052 131.815 111.47 131.885 111.96H130.891C130.844 111.689 130.739 111.447 130.576 111.232C130.413 111.013 130.198 110.84 129.932 110.714C129.671 110.588 129.367 110.525 129.022 110.525C128.364 110.525 127.827 110.761 127.412 111.232C126.997 111.699 126.789 112.42 126.789 113.395C126.789 114.268 126.976 114.968 127.349 115.495C127.727 116.018 128.289 116.279 129.036 116.279C129.377 116.279 129.678 116.216 129.939 116.09C130.205 115.959 130.42 115.787 130.583 115.572C130.746 115.353 130.851 115.112 130.898 114.851H131.878C131.808 115.327 131.638 115.738 131.367 116.083C131.101 116.424 130.765 116.685 130.359 116.867C129.953 117.049 129.505 117.14 129.015 117.14ZM133.672 117V106.598H134.757V113.549L138.362 109.762H139.65L137.046 112.485L139.853 117H138.67L136.318 113.227L134.757 114.83V117H133.672ZM145.444 119.31C145.038 119.31 144.76 119.282 144.611 119.226C144.466 119.175 144.394 119.149 144.394 119.149V118.435L145.143 118.442C145.4 118.451 145.614 118.433 145.787 118.386C145.96 118.339 146.1 118.274 146.207 118.19C146.319 118.111 146.405 118.02 146.466 117.917C146.531 117.819 146.583 117.721 146.62 117.623L146.907 116.86L144.079 109.762H145.192L147.439 115.586L149.658 109.762H150.722L147.642 117.679C147.474 118.099 147.28 118.426 147.061 118.659C146.842 118.897 146.597 119.065 146.326 119.163C146.055 119.261 145.761 119.31 145.444 119.31ZM154.923 117.14C154.265 117.14 153.691 117 153.201 116.72C152.711 116.435 152.33 116.015 152.06 115.46C151.789 114.905 151.654 114.221 151.654 113.409C151.654 112.653 151.777 111.99 152.025 111.421C152.272 110.852 152.638 110.411 153.124 110.098C153.614 109.781 154.213 109.622 154.923 109.622C155.576 109.622 156.145 109.767 156.631 110.056C157.116 110.341 157.492 110.765 157.758 111.33C158.028 111.89 158.164 112.583 158.164 113.409C158.164 114.146 158.04 114.795 157.793 115.355C157.55 115.915 157.188 116.354 156.708 116.671C156.232 116.984 155.637 117.14 154.923 117.14ZM154.923 116.258C155.375 116.258 155.763 116.146 156.085 115.922C156.407 115.698 156.652 115.371 156.82 114.942C156.988 114.513 157.072 113.992 157.072 113.381C157.072 112.83 156.997 112.338 156.848 111.904C156.703 111.47 156.472 111.129 156.155 110.882C155.837 110.63 155.427 110.504 154.923 110.504C154.465 110.504 154.073 110.616 153.747 110.84C153.42 111.059 153.17 111.384 152.998 111.813C152.83 112.242 152.746 112.765 152.746 113.381C152.746 113.932 152.82 114.424 152.97 114.858C153.119 115.287 153.355 115.628 153.677 115.88C153.999 116.132 154.414 116.258 154.923 116.258ZM162.609 117.14C162.222 117.135 161.86 117.082 161.524 116.979C161.188 116.872 160.892 116.715 160.635 116.51C160.383 116.3 160.185 116.041 160.04 115.733C159.9 115.42 159.83 115.059 159.83 114.648V109.762H160.922V114.55C160.922 115.059 161.076 115.472 161.384 115.789C161.692 116.102 162.166 116.258 162.805 116.258C163.374 116.258 163.832 116.111 164.177 115.817C164.522 115.518 164.695 115.068 164.695 114.466V109.762H165.78V117H164.898L164.786 115.628C164.702 115.973 164.555 116.258 164.345 116.482C164.14 116.706 163.888 116.874 163.589 116.986C163.295 117.093 162.968 117.145 162.609 117.14ZM168.111 117V109.762H169.147V111.071C169.269 110.73 169.439 110.455 169.658 110.245C169.882 110.03 170.132 109.874 170.407 109.776C170.687 109.673 170.97 109.622 171.254 109.622C171.371 109.622 171.485 109.631 171.597 109.65C171.709 109.664 171.798 109.69 171.863 109.727V110.791C171.789 110.754 171.688 110.728 171.562 110.714C171.441 110.7 171.338 110.693 171.254 110.693C170.998 110.679 170.748 110.698 170.505 110.749C170.263 110.8 170.041 110.891 169.84 111.022C169.644 111.153 169.488 111.328 169.371 111.547C169.259 111.766 169.203 112.035 169.203 112.352V117H168.111ZM180.415 117.14C179.972 117.14 179.598 117.082 179.295 116.965C178.996 116.844 178.754 116.694 178.567 116.517C178.38 116.34 178.238 116.16 178.14 115.978C178.042 115.796 177.972 115.642 177.93 115.516L177.818 117H176.957V106.598H178.063V110.952C178.114 110.845 178.201 110.716 178.322 110.567C178.443 110.418 178.602 110.271 178.798 110.126C178.994 109.981 179.232 109.862 179.512 109.769C179.792 109.671 180.116 109.622 180.485 109.622C181.39 109.622 182.114 109.935 182.655 110.56C183.196 111.185 183.467 112.116 183.467 113.353C183.467 114.114 183.353 114.779 183.124 115.348C182.9 115.913 182.562 116.354 182.109 116.671C181.661 116.984 181.096 117.14 180.415 117.14ZM180.24 116.272C180.87 116.272 181.379 116.032 181.766 115.551C182.158 115.07 182.354 114.314 182.354 113.283C182.354 112.415 182.174 111.734 181.815 111.239C181.456 110.744 180.921 110.497 180.212 110.497C179.694 110.497 179.279 110.609 178.966 110.833C178.653 111.052 178.425 111.37 178.28 111.785C178.14 112.2 178.068 112.7 178.063 113.283C178.063 114.338 178.229 115.101 178.56 115.572C178.891 116.039 179.451 116.272 180.24 116.272ZM185.269 117V109.762H186.305V111.071C186.427 110.73 186.597 110.455 186.816 110.245C187.04 110.03 187.29 109.874 187.565 109.776C187.845 109.673 188.128 109.622 188.412 109.622C188.529 109.622 188.643 109.631 188.755 109.65C188.867 109.664 188.956 109.69 189.021 109.727V110.791C188.947 110.754 188.846 110.728 188.72 110.714C188.599 110.7 188.496 110.693 188.412 110.693C188.156 110.679 187.906 110.698 187.663 110.749C187.421 110.8 187.199 110.891 186.998 111.022C186.802 111.153 186.646 111.328 186.529 111.547C186.417 111.766 186.361 112.035 186.361 112.352V117H185.269ZM193.354 117.14C192.696 117.14 192.122 117 191.632 116.72C191.142 116.435 190.762 116.015 190.491 115.46C190.221 114.905 190.085 114.221 190.085 113.409C190.085 112.653 190.209 111.99 190.456 111.421C190.704 110.852 191.07 110.411 191.555 110.098C192.045 109.781 192.645 109.622 193.354 109.622C194.008 109.622 194.577 109.767 195.062 110.056C195.548 110.341 195.923 110.765 196.189 111.33C196.46 111.89 196.595 112.583 196.595 113.409C196.595 114.146 196.472 114.795 196.224 115.355C195.982 115.915 195.62 116.354 195.139 116.671C194.663 116.984 194.068 117.14 193.354 117.14ZM193.354 116.258C193.807 116.258 194.194 116.146 194.516 115.922C194.838 115.698 195.083 115.371 195.251 114.942C195.419 114.513 195.503 113.992 195.503 113.381C195.503 112.83 195.429 112.338 195.279 111.904C195.135 111.47 194.904 111.129 194.586 110.882C194.269 110.63 193.858 110.504 193.354 110.504C192.897 110.504 192.505 110.616 192.178 110.84C191.852 111.059 191.602 111.384 191.429 111.813C191.261 112.242 191.177 112.765 191.177 113.381C191.177 113.932 191.252 114.424 191.401 114.858C191.551 115.287 191.786 115.628 192.108 115.88C192.43 116.132 192.846 116.258 193.354 116.258ZM199.824 117L197.619 109.762H198.648L200.384 115.614H200.51L202.218 109.762H203.065L204.857 115.6H204.99L206.642 109.762H207.685L205.536 117H204.36L202.631 111.393L201 117H199.824ZM211.613 117.14C211.109 117.14 210.644 117.063 210.22 116.909C209.8 116.75 209.452 116.51 209.177 116.188C208.901 115.861 208.731 115.446 208.666 114.942H209.681C209.741 115.231 209.858 115.476 210.031 115.677C210.208 115.878 210.43 116.032 210.696 116.139C210.966 116.242 211.27 116.293 211.606 116.293C212.119 116.293 212.532 116.195 212.845 115.999C213.162 115.798 213.321 115.493 213.321 115.082C213.321 114.797 213.239 114.569 213.076 114.396C212.917 114.223 212.672 114.097 212.341 114.018L210.787 113.619C210.217 113.474 209.762 113.257 209.422 112.968C209.086 112.674 208.918 112.266 208.918 111.743C208.918 111.328 209.016 110.961 209.212 110.644C209.412 110.327 209.711 110.077 210.108 109.895C210.504 109.713 211.001 109.622 211.599 109.622C212.355 109.622 212.966 109.792 213.433 110.133C213.904 110.474 214.151 110.982 214.175 111.659H213.188C213.141 111.29 212.98 110.999 212.705 110.784C212.434 110.565 212.063 110.455 211.592 110.455C211.102 110.455 210.703 110.555 210.395 110.756C210.087 110.957 209.933 111.267 209.933 111.687C209.933 111.967 210.038 112.186 210.248 112.345C210.462 112.499 210.77 112.627 211.172 112.73L212.698 113.129C213.015 113.213 213.276 113.325 213.482 113.465C213.692 113.6 213.857 113.754 213.979 113.927C214.105 114.095 214.193 114.275 214.245 114.466C214.296 114.657 214.322 114.842 214.322 115.019C214.322 115.453 214.217 115.829 214.007 116.146C213.801 116.463 213.496 116.708 213.09 116.881C212.688 117.054 212.196 117.14 211.613 117.14ZM219.095 117.14C218.433 117.14 217.847 116.995 217.338 116.706C216.834 116.412 216.44 115.99 216.155 115.439C215.871 114.888 215.728 114.226 215.728 113.451C215.728 112.681 215.857 112.009 216.113 111.435C216.37 110.856 216.743 110.411 217.233 110.098C217.723 109.781 218.314 109.622 219.004 109.622C219.672 109.622 220.236 109.767 220.698 110.056C221.16 110.341 221.513 110.749 221.755 111.281C221.998 111.813 222.119 112.448 222.119 113.185V113.633H216.848C216.844 114.118 216.921 114.559 217.079 114.956C217.243 115.353 217.49 115.67 217.821 115.908C218.153 116.146 218.57 116.265 219.074 116.265C219.569 116.265 219.994 116.151 220.348 115.922C220.703 115.689 220.925 115.36 221.013 114.935H222.063C221.975 115.42 221.781 115.826 221.482 116.153C221.184 116.48 220.824 116.727 220.404 116.895C219.989 117.058 219.553 117.14 219.095 117.14ZM216.855 112.856H221.055C221.055 112.408 220.981 112.004 220.831 111.645C220.682 111.286 220.453 111.001 220.145 110.791C219.842 110.581 219.457 110.476 218.99 110.476C218.5 110.476 218.097 110.595 217.779 110.833C217.462 111.066 217.226 111.365 217.072 111.729C216.923 112.093 216.851 112.469 216.855 112.856ZM224.002 117V109.762H225.038V111.071C225.159 110.73 225.33 110.455 225.549 110.245C225.773 110.03 226.023 109.874 226.298 109.776C226.578 109.673 226.86 109.622 227.145 109.622C227.262 109.622 227.376 109.631 227.488 109.65C227.6 109.664 227.689 109.69 227.754 109.727V110.791C227.679 110.754 227.579 110.728 227.453 110.714C227.332 110.7 227.229 110.693 227.145 110.693C226.888 110.679 226.639 110.698 226.396 110.749C226.153 110.8 225.932 110.891 225.731 111.022C225.535 111.153 225.379 111.328 225.262 111.547C225.15 111.766 225.094 112.035 225.094 112.352V117H224.002ZM229.682 109.965L229.311 106.878H230.739L230.347 109.965H229.682ZM234.281 117.14C233.777 117.14 233.312 117.063 232.888 116.909C232.468 116.75 232.12 116.51 231.845 116.188C231.569 115.861 231.399 115.446 231.334 114.942H232.349C232.409 115.231 232.526 115.476 232.699 115.677C232.876 115.878 233.098 116.032 233.364 116.139C233.634 116.242 233.938 116.293 234.274 116.293C234.787 116.293 235.2 116.195 235.513 115.999C235.83 115.798 235.989 115.493 235.989 115.082C235.989 114.797 235.907 114.569 235.744 114.396C235.585 114.223 235.34 114.097 235.009 114.018L233.455 113.619C232.885 113.474 232.43 113.257 232.09 112.968C231.754 112.674 231.586 112.266 231.586 111.743C231.586 111.328 231.684 110.961 231.88 110.644C232.08 110.327 232.379 110.077 232.776 109.895C233.172 109.713 233.669 109.622 234.267 109.622C235.023 109.622 235.634 109.792 236.101 110.133C236.572 110.474 236.819 110.982 236.843 111.659H235.856C235.809 111.29 235.648 110.999 235.373 110.784C235.102 110.565 234.731 110.455 234.26 110.455C233.77 110.455 233.371 110.555 233.063 110.756C232.755 110.957 232.601 111.267 232.601 111.687C232.601 111.967 232.706 112.186 232.916 112.345C233.13 112.499 233.438 112.627 233.84 112.73L235.366 113.129C235.683 113.213 235.944 113.325 236.15 113.465C236.36 113.6 236.525 113.754 236.647 113.927C236.773 114.095 236.861 114.275 236.913 114.466C236.964 114.657 236.99 114.842 236.99 115.019C236.99 115.453 236.885 115.829 236.675 116.146C236.469 116.463 236.164 116.708 235.758 116.881C235.356 117.054 234.864 117.14 234.281 117.14ZM243.879 117.077C243.534 117.077 243.249 117.028 243.025 116.93C242.806 116.827 242.633 116.687 242.507 116.51C242.386 116.333 242.302 116.13 242.255 115.901C242.209 115.672 242.185 115.432 242.185 115.18V106.598H243.263V115.089C243.263 115.486 243.338 115.777 243.487 115.964C243.637 116.146 243.833 116.244 244.075 116.258L244.481 116.265V116.979C244.379 117.012 244.274 117.035 244.166 117.049C244.059 117.068 243.963 117.077 243.879 117.077ZM248.835 117.14C248.177 117.14 247.603 117 247.113 116.72C246.623 116.435 246.243 116.015 245.972 115.46C245.701 114.905 245.566 114.221 245.566 113.409C245.566 112.653 245.69 111.99 245.937 111.421C246.184 110.852 246.551 110.411 247.036 110.098C247.526 109.781 248.126 109.622 248.835 109.622C249.488 109.622 250.058 109.767 250.543 110.056C251.028 110.341 251.404 110.765 251.67 111.33C251.941 111.89 252.076 112.583 252.076 113.409C252.076 114.146 251.952 114.795 251.705 115.355C251.462 115.915 251.101 116.354 250.62 116.671C250.144 116.984 249.549 117.14 248.835 117.14ZM248.835 116.258C249.288 116.258 249.675 116.146 249.997 115.922C250.319 115.698 250.564 115.371 250.732 114.942C250.9 114.513 250.984 113.992 250.984 113.381C250.984 112.83 250.909 112.338 250.76 111.904C250.615 111.47 250.384 111.129 250.067 110.882C249.75 110.63 249.339 110.504 248.835 110.504C248.378 110.504 247.986 110.616 247.659 110.84C247.332 111.059 247.083 111.384 246.91 111.813C246.742 112.242 246.658 112.765 246.658 113.381C246.658 113.932 246.733 114.424 246.882 114.858C247.031 115.287 247.267 115.628 247.589 115.88C247.911 116.132 248.326 116.258 248.835 116.258ZM256.724 117.14C256.08 117.14 255.511 117 255.016 116.72C254.521 116.44 254.134 116.022 253.854 115.467C253.579 114.912 253.441 114.223 253.441 113.402C253.441 112.651 253.565 111.993 253.812 111.428C254.064 110.859 254.435 110.415 254.925 110.098C255.415 109.781 256.015 109.622 256.724 109.622C257.219 109.622 257.669 109.715 258.075 109.902C258.481 110.089 258.817 110.357 259.083 110.707C259.354 111.052 259.524 111.47 259.594 111.96H258.6C258.553 111.689 258.448 111.447 258.285 111.232C258.122 111.013 257.907 110.84 257.641 110.714C257.38 110.588 257.076 110.525 256.731 110.525C256.073 110.525 255.536 110.761 255.121 111.232C254.706 111.699 254.498 112.42 254.498 113.395C254.498 114.268 254.685 114.968 255.058 115.495C255.436 116.018 255.998 116.279 256.745 116.279C257.086 116.279 257.387 116.216 257.648 116.09C257.914 115.959 258.129 115.787 258.292 115.572C258.455 115.353 258.56 115.112 258.607 114.851H259.587C259.517 115.327 259.347 115.738 259.076 116.083C258.81 116.424 258.474 116.685 258.068 116.867C257.662 117.049 257.214 117.14 256.724 117.14ZM263.383 117.14C262.911 117.14 262.496 117.058 262.137 116.895C261.782 116.727 261.504 116.489 261.304 116.181C261.108 115.873 261.01 115.502 261.01 115.068C261.01 114.265 261.285 113.67 261.836 113.283C262.386 112.896 263.275 112.686 264.503 112.653L265.896 112.611V112.009C265.896 111.538 265.753 111.162 265.469 110.882C265.184 110.597 264.743 110.457 264.146 110.462C263.698 110.462 263.308 110.567 262.977 110.777C262.65 110.982 262.442 111.314 262.354 111.771H261.36C261.388 111.318 261.514 110.933 261.738 110.616C261.966 110.294 262.288 110.049 262.704 109.881C263.119 109.708 263.616 109.622 264.195 109.622C264.797 109.622 265.301 109.711 265.707 109.888C266.117 110.061 266.428 110.322 266.638 110.672C266.848 111.017 266.953 111.447 266.953 111.96V117H266.015L265.938 115.607C265.648 116.181 265.28 116.58 264.832 116.804C264.388 117.028 263.905 117.14 263.383 117.14ZM263.691 116.321C263.947 116.321 264.206 116.274 264.468 116.181C264.729 116.088 264.967 115.959 265.182 115.796C265.396 115.633 265.569 115.451 265.7 115.25C265.83 115.049 265.896 114.844 265.896 114.634V113.346L264.734 113.367C264.122 113.376 263.621 113.437 263.229 113.549C262.837 113.661 262.547 113.834 262.361 114.067C262.174 114.296 262.081 114.597 262.081 114.97C262.081 115.395 262.23 115.726 262.529 115.964C262.827 116.202 263.215 116.321 263.691 116.321ZM270.772 117.077C270.427 117.077 270.142 117.028 269.918 116.93C269.699 116.827 269.526 116.687 269.4 116.51C269.279 116.333 269.195 116.13 269.148 115.901C269.101 115.672 269.078 115.432 269.078 115.18V106.598H270.156V115.089C270.156 115.486 270.231 115.777 270.38 115.964C270.529 116.146 270.725 116.244 270.968 116.258L271.374 116.265V116.979C271.271 117.012 271.166 117.035 271.059 117.049C270.952 117.068 270.856 117.077 270.772 117.077ZM279.207 117.14C278.703 117.14 278.238 117.063 277.814 116.909C277.394 116.75 277.046 116.51 276.771 116.188C276.495 115.861 276.325 115.446 276.26 114.942H277.275C277.335 115.231 277.452 115.476 277.625 115.677C277.802 115.878 278.024 116.032 278.29 116.139C278.56 116.242 278.864 116.293 279.2 116.293C279.713 116.293 280.126 116.195 280.439 115.999C280.756 115.798 280.915 115.493 280.915 115.082C280.915 114.797 280.833 114.569 280.67 114.396C280.511 114.223 280.266 114.097 279.935 114.018L278.381 113.619C277.811 113.474 277.356 113.257 277.016 112.968C276.68 112.674 276.512 112.266 276.512 111.743C276.512 111.328 276.61 110.961 276.806 110.644C277.006 110.327 277.305 110.077 277.702 109.895C278.098 109.713 278.595 109.622 279.193 109.622C279.949 109.622 280.56 109.792 281.027 110.133C281.498 110.474 281.745 110.982 281.769 111.659H280.782C280.735 111.29 280.574 110.999 280.299 110.784C280.028 110.565 279.657 110.455 279.186 110.455C278.696 110.455 278.297 110.555 277.989 110.756C277.681 110.957 277.527 111.267 277.527 111.687C277.527 111.967 277.632 112.186 277.842 112.345C278.056 112.499 278.364 112.627 278.766 112.73L280.292 113.129C280.609 113.213 280.87 113.325 281.076 113.465C281.286 113.6 281.451 113.754 281.573 113.927C281.699 114.095 281.787 114.275 281.839 114.466C281.89 114.657 281.916 114.842 281.916 115.019C281.916 115.453 281.811 115.829 281.601 116.146C281.395 116.463 281.09 116.708 280.684 116.881C280.282 117.054 279.79 117.14 279.207 117.14ZM286.029 117.028C285.567 117.028 285.208 116.963 284.951 116.832C284.699 116.701 284.522 116.508 284.419 116.251C284.316 115.994 284.265 115.672 284.265 115.285V110.581H283.089V109.762H284.293L284.552 107.676H285.364V109.755H287.002V110.581H285.364V115.25C285.364 115.53 285.39 115.735 285.441 115.866C285.497 115.992 285.593 116.074 285.728 116.111C285.868 116.144 286.062 116.16 286.309 116.16H287.051V116.916C286.962 116.949 286.829 116.977 286.652 117C286.479 117.019 286.272 117.028 286.029 117.028ZM291.505 117.14C290.847 117.14 290.273 117 289.783 116.72C289.293 116.435 288.912 116.015 288.642 115.46C288.371 114.905 288.236 114.221 288.236 113.409C288.236 112.653 288.359 111.99 288.607 111.421C288.854 110.852 289.22 110.411 289.706 110.098C290.196 109.781 290.795 109.622 291.505 109.622C292.158 109.622 292.727 109.767 293.213 110.056C293.698 110.341 294.074 110.765 294.34 111.33C294.61 111.89 294.746 112.583 294.746 113.409C294.746 114.146 294.622 114.795 294.375 115.355C294.132 115.915 293.77 116.354 293.29 116.671C292.814 116.984 292.219 117.14 291.505 117.14ZM291.505 116.258C291.957 116.258 292.345 116.146 292.667 115.922C292.989 115.698 293.234 115.371 293.402 114.942C293.57 114.513 293.654 113.992 293.654 113.381C293.654 112.83 293.579 112.338 293.43 111.904C293.285 111.47 293.054 111.129 292.737 110.882C292.419 110.63 292.009 110.504 291.505 110.504C291.047 110.504 290.655 110.616 290.329 110.84C290.002 111.059 289.752 111.384 289.58 111.813C289.412 112.242 289.328 112.765 289.328 113.381C289.328 113.932 289.402 114.424 289.552 114.858C289.701 115.287 289.937 115.628 290.259 115.88C290.581 116.132 290.996 116.258 291.505 116.258ZM296.545 117V109.762H297.581V111.071C297.702 110.73 297.872 110.455 298.092 110.245C298.316 110.03 298.565 109.874 298.841 109.776C299.121 109.673 299.403 109.622 299.688 109.622C299.804 109.622 299.919 109.631 300.031 109.65C300.143 109.664 300.231 109.69 300.297 109.727V110.791C300.222 110.754 300.122 110.728 299.996 110.714C299.874 110.7 299.772 110.693 299.688 110.693C299.431 110.679 299.181 110.698 298.939 110.749C298.696 110.8 298.474 110.891 298.274 111.022C298.078 111.153 297.921 111.328 297.805 111.547C297.693 111.766 297.637 112.035 297.637 112.352V117H296.545ZM303.646 117.14C303.175 117.14 302.76 117.058 302.4 116.895C302.046 116.727 301.768 116.489 301.567 116.181C301.371 115.873 301.273 115.502 301.273 115.068C301.273 114.265 301.549 113.67 302.099 113.283C302.65 112.896 303.539 112.686 304.766 112.653L306.159 112.611V112.009C306.159 111.538 306.017 111.162 305.732 110.882C305.448 110.597 305.007 110.457 304.409 110.462C303.961 110.462 303.572 110.567 303.24 110.777C302.914 110.982 302.706 111.314 302.617 111.771H301.623C301.651 111.318 301.777 110.933 302.001 110.616C302.23 110.294 302.552 110.049 302.967 109.881C303.383 109.708 303.88 109.622 304.458 109.622C305.06 109.622 305.564 109.711 305.97 109.888C306.381 110.061 306.691 110.322 306.901 110.672C307.111 111.017 307.216 111.447 307.216 111.96V117H306.278L306.201 115.607C305.912 116.181 305.543 116.58 305.095 116.804C304.652 117.028 304.169 117.14 303.646 117.14ZM303.954 116.321C304.211 116.321 304.47 116.274 304.731 116.181C304.993 116.088 305.231 115.959 305.445 115.796C305.66 115.633 305.833 115.451 305.963 115.25C306.094 115.049 306.159 114.844 306.159 114.634V113.346L304.997 113.367C304.386 113.376 303.884 113.437 303.492 113.549C303.1 113.661 302.811 113.834 302.624 114.067C302.438 114.296 302.344 114.597 302.344 114.97C302.344 115.395 302.494 115.726 302.792 115.964C303.091 116.202 303.478 116.321 303.954 116.321ZM312.331 119.394C311.234 119.394 310.373 119.228 309.748 118.897C309.122 118.57 308.81 118.09 308.81 117.455C308.81 117.189 308.868 116.963 308.985 116.776C309.106 116.585 309.251 116.426 309.419 116.3C309.587 116.174 309.741 116.074 309.881 115.999C310.025 115.92 310.121 115.861 310.168 115.824C310.084 115.773 309.986 115.714 309.874 115.649C309.766 115.579 309.671 115.49 309.587 115.383C309.503 115.271 309.461 115.129 309.461 114.956C309.461 114.737 309.563 114.536 309.769 114.354C309.979 114.167 310.284 114.027 310.686 113.934C310.275 113.719 309.951 113.439 309.713 113.094C309.479 112.744 309.363 112.361 309.363 111.946C309.363 111.479 309.482 111.073 309.72 110.728C309.962 110.383 310.312 110.117 310.77 109.93C311.232 109.743 311.787 109.65 312.436 109.65C312.902 109.65 313.294 109.706 313.612 109.818C313.934 109.925 314.235 110.084 314.515 110.294C314.58 110.261 314.692 110.212 314.851 110.147C315.009 110.082 315.184 110.012 315.376 109.937C315.567 109.858 315.744 109.783 315.908 109.713C316.071 109.643 316.197 109.589 316.286 109.552L316.279 110.644L315.005 110.896C315.084 111.055 315.147 111.227 315.194 111.414C315.245 111.596 315.271 111.771 315.271 111.939C315.271 112.368 315.161 112.756 314.942 113.101C314.727 113.442 314.4 113.71 313.962 113.906C313.528 114.102 312.982 114.2 312.324 114.2C312.272 114.2 312.212 114.2 312.142 114.2C312.076 114.2 312.018 114.198 311.967 114.193C311.407 114.207 311.024 114.27 310.819 114.382C310.613 114.489 310.511 114.604 310.511 114.725C310.511 114.865 310.616 114.965 310.826 115.026C311.036 115.082 311.402 115.129 311.925 115.166C312.111 115.175 312.338 115.187 312.604 115.201C312.874 115.215 313.178 115.234 313.514 115.257C314.237 115.299 314.799 115.486 315.201 115.817C315.607 116.148 315.81 116.606 315.81 117.189C315.81 117.838 315.523 118.367 314.949 118.778C314.379 119.189 313.507 119.394 312.331 119.394ZM312.527 118.645C313.222 118.645 313.763 118.535 314.151 118.316C314.538 118.101 314.732 117.772 314.732 117.329C314.732 117.021 314.617 116.769 314.389 116.573C314.165 116.372 313.819 116.256 313.353 116.223L311.218 116.09C311.045 116.081 310.856 116.13 310.651 116.237C310.445 116.34 310.268 116.487 310.119 116.678C309.974 116.869 309.902 117.086 309.902 117.329C309.902 117.74 310.116 118.062 310.546 118.295C310.975 118.528 311.635 118.645 312.527 118.645ZM312.352 113.458C312.912 113.458 313.362 113.332 313.703 113.08C314.048 112.828 314.221 112.45 314.221 111.946C314.221 111.428 314.048 111.036 313.703 110.77C313.362 110.504 312.912 110.371 312.352 110.371C311.782 110.371 311.323 110.506 310.973 110.777C310.627 111.043 310.455 111.433 310.455 111.946C310.455 112.427 310.62 112.8 310.952 113.066C311.283 113.327 311.75 113.458 312.352 113.458ZM320.801 117.14C320.138 117.14 319.552 116.995 319.044 116.706C318.54 116.412 318.145 115.99 317.861 115.439C317.576 114.888 317.434 114.226 317.434 113.451C317.434 112.681 317.562 112.009 317.819 111.435C318.075 110.856 318.449 110.411 318.939 110.098C319.429 109.781 320.019 109.622 320.71 109.622C321.377 109.622 321.942 109.767 322.404 110.056C322.866 110.341 323.218 110.749 323.461 111.281C323.703 111.813 323.825 112.448 323.825 113.185V113.633H318.554C318.549 114.118 318.626 114.559 318.785 114.956C318.948 115.353 319.195 115.67 319.527 115.908C319.858 116.146 320.276 116.265 320.78 116.265C321.274 116.265 321.699 116.151 322.054 115.922C322.408 115.689 322.63 115.36 322.719 114.935H323.769C323.68 115.42 323.486 115.826 323.188 116.153C322.889 116.48 322.53 116.727 322.11 116.895C321.694 117.058 321.258 117.14 320.801 117.14ZM318.561 112.856H322.761C322.761 112.408 322.686 112.004 322.537 111.645C322.387 111.286 322.159 111.001 321.851 110.791C321.547 110.581 321.162 110.476 320.696 110.476C320.206 110.476 319.802 110.595 319.485 110.833C319.167 111.066 318.932 111.365 318.778 111.729C318.628 112.093 318.556 112.469 318.561 112.856ZM48.7466 139.028C48.2846 139.028 47.9253 138.963 47.6686 138.832C47.4166 138.701 47.2393 138.508 47.1366 138.251C47.0339 137.994 46.9826 137.672 46.9826 137.285V132.581H45.8066V131.762H47.0106L47.2696 129.676H48.0816V131.755H49.7196V132.581H48.0816V137.25C48.0816 137.53 48.1073 137.735 48.1586 137.866C48.2146 137.992 48.3103 138.074 48.4456 138.111C48.5856 138.144 48.7793 138.16 49.0266 138.16H49.7686V138.916C49.6799 138.949 49.5469 138.977 49.3696 139C49.1969 139.019 48.9893 139.028 48.7466 139.028ZM54.2226 139.14C53.5646 139.14 52.9906 139 52.5006 138.72C52.0106 138.435 51.6302 138.015 51.3596 137.46C51.0889 136.905 50.9536 136.221 50.9536 135.409C50.9536 134.653 51.0772 133.99 51.3246 133.421C51.5719 132.852 51.9382 132.411 52.4236 132.098C52.9136 131.781 53.5132 131.622 54.2226 131.622C54.8759 131.622 55.4452 131.767 55.9306 132.056C56.4159 132.341 56.7916 132.765 57.0576 133.33C57.3282 133.89 57.4636 134.583 57.4636 135.409C57.4636 136.146 57.3399 136.795 57.0926 137.355C56.8499 137.915 56.4882 138.354 56.0076 138.671C55.5316 138.984 54.9366 139.14 54.2226 139.14ZM54.2226 138.258C54.6752 138.258 55.0626 138.146 55.3846 137.922C55.7066 137.698 55.9516 137.371 56.1196 136.942C56.2876 136.513 56.3716 135.992 56.3716 135.381C56.3716 134.83 56.2969 134.338 56.1476 133.904C56.0029 133.47 55.7719 133.129 55.4546 132.882C55.1372 132.63 54.7266 132.504 54.2226 132.504C53.7652 132.504 53.3732 132.616 53.0466 132.84C52.7199 133.059 52.4702 133.384 52.2976 133.813C52.1296 134.242 52.0456 134.765 52.0456 135.381C52.0456 135.932 52.1202 136.424 52.2696 136.858C52.4189 137.287 52.6546 137.628 52.9766 137.88C53.2986 138.132 53.7139 138.258 54.2226 138.258ZM65.1529 139.14C64.6489 139.14 64.1845 139.063 63.7599 138.909C63.3399 138.75 62.9922 138.51 62.7169 138.188C62.4415 137.861 62.2712 137.446 62.2059 136.942H63.2209C63.2815 137.231 63.3982 137.476 63.5709 137.677C63.7482 137.878 63.9699 138.032 64.2359 138.139C64.5065 138.242 64.8099 138.293 65.1459 138.293C65.6592 138.293 66.0722 138.195 66.3849 137.999C66.7022 137.798 66.8609 137.493 66.8609 137.082C66.8609 136.797 66.7792 136.569 66.6159 136.396C66.4572 136.223 66.2122 136.097 65.8809 136.018L64.3269 135.619C63.7575 135.474 63.3025 135.257 62.9619 134.968C62.6259 134.674 62.4579 134.266 62.4579 133.743C62.4579 133.328 62.5559 132.961 62.7519 132.644C62.9525 132.327 63.2512 132.077 63.6479 131.895C64.0445 131.713 64.5415 131.622 65.1389 131.622C65.8949 131.622 66.5062 131.792 66.9729 132.133C67.4442 132.474 67.6915 132.982 67.7149 133.659H66.7279C66.6812 133.29 66.5202 132.999 66.2449 132.784C65.9742 132.565 65.6032 132.455 65.1319 132.455C64.6419 132.455 64.2429 132.555 63.9349 132.756C63.6269 132.957 63.4729 133.267 63.4729 133.687C63.4729 133.967 63.5779 134.186 63.7879 134.345C64.0025 134.499 64.3105 134.627 64.7119 134.73L66.2379 135.129C66.5552 135.213 66.8165 135.325 67.0219 135.465C67.2319 135.6 67.3975 135.754 67.5189 135.927C67.6449 136.095 67.7335 136.275 67.7849 136.466C67.8362 136.657 67.8619 136.842 67.8619 137.019C67.8619 137.453 67.7569 137.829 67.5469 138.146C67.3415 138.463 67.0359 138.708 66.6299 138.881C66.2285 139.054 65.7362 139.14 65.1529 139.14ZM72.6355 139.14C71.9729 139.14 71.3872 138.995 70.8785 138.706C70.3745 138.412 69.9802 137.99 69.6955 137.439C69.4109 136.888 69.2685 136.226 69.2685 135.451C69.2685 134.681 69.3969 134.009 69.6535 133.435C69.9102 132.856 70.2835 132.411 70.7735 132.098C71.2635 131.781 71.8539 131.622 72.5445 131.622C73.2119 131.622 73.7765 131.767 74.2385 132.056C74.7005 132.341 75.0529 132.749 75.2955 133.281C75.5382 133.813 75.6595 134.448 75.6595 135.185V135.633H70.3885C70.3839 136.118 70.4609 136.559 70.6195 136.956C70.7829 137.353 71.0302 137.67 71.3615 137.908C71.6929 138.146 72.1105 138.265 72.6145 138.265C73.1092 138.265 73.5339 138.151 73.8885 137.922C74.2432 137.689 74.4649 137.36 74.5535 136.935H75.6035C75.5149 137.42 75.3212 137.826 75.0225 138.153C74.7239 138.48 74.3645 138.727 73.9445 138.895C73.5292 139.058 73.0929 139.14 72.6355 139.14ZM70.3955 134.856H74.5955C74.5955 134.408 74.5209 134.004 74.3715 133.645C74.2222 133.286 73.9935 133.001 73.6855 132.791C73.3822 132.581 72.9972 132.476 72.5305 132.476C72.0405 132.476 71.6369 132.595 71.3195 132.833C71.0022 133.066 70.7665 133.365 70.6125 133.729C70.4632 134.093 70.3909 134.469 70.3955 134.856ZM80.5379 139.14C79.8752 139.14 79.2895 138.995 78.7809 138.706C78.2769 138.412 77.8825 137.99 77.5979 137.439C77.3132 136.888 77.1709 136.226 77.1709 135.451C77.1709 134.681 77.2992 134.009 77.5559 133.435C77.8125 132.856 78.1859 132.411 78.6759 132.098C79.1659 131.781 79.7562 131.622 80.4469 131.622C81.1142 131.622 81.6789 131.767 82.1409 132.056C82.6029 132.341 82.9552 132.749 83.1979 133.281C83.4405 133.813 83.5619 134.448 83.5619 135.185V135.633H78.2909C78.2862 136.118 78.3632 136.559 78.5219 136.956C78.6852 137.353 78.9325 137.67 79.2639 137.908C79.5952 138.146 80.0129 138.265 80.5169 138.265C81.0115 138.265 81.4362 138.151 81.7909 137.922C82.1455 137.689 82.3672 137.36 82.4559 136.935H83.5059C83.4172 137.42 83.2235 137.826 82.9249 138.153C82.6262 138.48 82.2669 138.727 81.8469 138.895C81.4315 139.058 80.9952 139.14 80.5379 139.14ZM78.2979 134.856H82.4979C82.4979 134.408 82.4232 134.004 82.2739 133.645C82.1245 133.286 81.8959 133.001 81.5879 132.791C81.2845 132.581 80.8995 132.476 80.4329 132.476C79.9429 132.476 79.5392 132.595 79.2219 132.833C78.9045 133.066 78.6689 133.365 78.5149 133.729C78.3655 134.093 78.2932 134.469 78.2979 134.856ZM88.8565 139V131.762H89.9205V139H88.8565ZM88.8075 130.089V128.885H89.9555V130.089H88.8075ZM93.2061 139V132.581H91.6241V131.762H93.2061V130.614C93.2061 130.045 93.3438 129.613 93.6191 129.319C93.8991 129.025 94.3285 128.878 94.9071 128.878H96.1881V129.676H95.0751C94.7671 129.676 94.5571 129.76 94.4451 129.928C94.3378 130.091 94.2841 130.339 94.2841 130.67V131.762H96.1181V132.581H94.2981V139H93.2061ZM101.715 141.31C101.309 141.31 101.031 141.282 100.882 141.226C100.737 141.175 100.665 141.149 100.665 141.149V140.435L101.414 140.442C101.67 140.451 101.885 140.433 102.058 140.386C102.23 140.339 102.37 140.274 102.478 140.19C102.59 140.111 102.676 140.02 102.737 139.917C102.802 139.819 102.853 139.721 102.891 139.623L103.178 138.86L100.35 131.762H101.463L103.71 137.586L105.929 131.762H106.993L103.913 139.679C103.745 140.099 103.551 140.426 103.332 140.659C103.112 140.897 102.867 141.065 102.597 141.163C102.326 141.261 102.032 141.31 101.715 141.31ZM111.193 139.14C110.535 139.14 109.961 139 109.471 138.72C108.981 138.435 108.601 138.015 108.33 137.46C108.06 136.905 107.924 136.221 107.924 135.409C107.924 134.653 108.048 133.99 108.295 133.421C108.543 132.852 108.909 132.411 109.394 132.098C109.884 131.781 110.484 131.622 111.193 131.622C111.847 131.622 112.416 131.767 112.901 132.056C113.387 132.341 113.762 132.765 114.028 133.33C114.299 133.89 114.434 134.583 114.434 135.409C114.434 136.146 114.311 136.795 114.063 137.355C113.821 137.915 113.459 138.354 112.978 138.671C112.502 138.984 111.907 139.14 111.193 139.14ZM111.193 138.258C111.646 138.258 112.033 138.146 112.355 137.922C112.677 137.698 112.922 137.371 113.09 136.942C113.258 136.513 113.342 135.992 113.342 135.381C113.342 134.83 113.268 134.338 113.118 133.904C112.974 133.47 112.743 133.129 112.425 132.882C112.108 132.63 111.697 132.504 111.193 132.504C110.736 132.504 110.344 132.616 110.017 132.84C109.691 133.059 109.441 133.384 109.268 133.813C109.1 134.242 109.016 134.765 109.016 135.381C109.016 135.932 109.091 136.424 109.24 136.858C109.39 137.287 109.625 137.628 109.947 137.88C110.269 138.132 110.685 138.258 111.193 138.258ZM118.88 139.14C118.492 139.135 118.131 139.082 117.795 138.979C117.459 138.872 117.162 138.715 116.906 138.51C116.654 138.3 116.455 138.041 116.311 137.733C116.171 137.42 116.101 137.059 116.101 136.648V131.762H117.193V136.55C117.193 137.059 117.347 137.472 117.655 137.789C117.963 138.102 118.436 138.258 119.076 138.258C119.645 138.258 120.102 138.111 120.448 137.817C120.793 137.518 120.966 137.068 120.966 136.466V131.762H122.051V139H121.169L121.057 137.628C120.973 137.973 120.826 138.258 120.616 138.482C120.41 138.706 120.158 138.874 119.86 138.986C119.566 139.093 119.239 139.145 118.88 139.14ZM127.745 139V128.598H128.802V132.826C128.928 132.621 129.096 132.429 129.306 132.252C129.521 132.075 129.777 131.932 130.076 131.825C130.379 131.713 130.725 131.657 131.112 131.657C131.588 131.657 132.015 131.743 132.393 131.916C132.776 132.089 133.079 132.334 133.303 132.651C133.527 132.968 133.639 133.342 133.639 133.771V139H132.547V134.016C132.547 133.559 132.391 133.204 132.078 132.952C131.765 132.695 131.352 132.567 130.839 132.567C130.489 132.567 130.16 132.625 129.852 132.742C129.549 132.854 129.304 133.024 129.117 133.253C128.93 133.477 128.837 133.764 128.837 134.114V139H127.745ZM137.745 139.14C137.274 139.14 136.858 139.058 136.499 138.895C136.144 138.727 135.867 138.489 135.666 138.181C135.47 137.873 135.372 137.502 135.372 137.068C135.372 136.265 135.647 135.67 136.198 135.283C136.749 134.896 137.638 134.686 138.865 134.653L140.258 134.611V134.009C140.258 133.538 140.116 133.162 139.831 132.882C139.546 132.597 139.105 132.457 138.508 132.462C138.06 132.462 137.67 132.567 137.339 132.777C137.012 132.982 136.805 133.314 136.716 133.771H135.722C135.75 133.318 135.876 132.933 136.1 132.616C136.329 132.294 136.651 132.049 137.066 131.881C137.481 131.708 137.978 131.622 138.557 131.622C139.159 131.622 139.663 131.711 140.069 131.888C140.48 132.061 140.79 132.322 141 132.672C141.21 133.017 141.315 133.447 141.315 133.96V139H140.377L140.3 137.607C140.011 138.181 139.642 138.58 139.194 138.804C138.751 139.028 138.268 139.14 137.745 139.14ZM138.053 138.321C138.31 138.321 138.569 138.274 138.83 138.181C139.091 138.088 139.329 137.959 139.544 137.796C139.759 137.633 139.931 137.451 140.062 137.25C140.193 137.049 140.258 136.844 140.258 136.634V135.346L139.096 135.367C138.485 135.376 137.983 135.437 137.591 135.549C137.199 135.661 136.91 135.834 136.723 136.067C136.536 136.296 136.443 136.597 136.443 136.97C136.443 137.395 136.592 137.726 136.891 137.964C137.19 138.202 137.577 138.321 138.053 138.321ZM145.063 139L142.473 131.762H143.523L145.532 137.649H145.672L147.709 131.762H148.738L146.162 139H145.063ZM153.095 139.14C152.432 139.14 151.846 138.995 151.338 138.706C150.834 138.412 150.439 137.99 150.155 137.439C149.87 136.888 149.728 136.226 149.728 135.451C149.728 134.681 149.856 134.009 150.113 133.435C150.369 132.856 150.743 132.411 151.233 132.098C151.723 131.781 152.313 131.622 153.004 131.622C153.671 131.622 154.236 131.767 154.698 132.056C155.16 132.341 155.512 132.749 155.755 133.281C155.997 133.813 156.119 134.448 156.119 135.185V135.633H150.848C150.843 136.118 150.92 136.559 151.079 136.956C151.242 137.353 151.489 137.67 151.821 137.908C152.152 138.146 152.57 138.265 153.074 138.265C153.568 138.265 153.993 138.151 154.348 137.922C154.702 137.689 154.924 137.36 155.013 136.935H156.063C155.974 137.42 155.78 137.826 155.482 138.153C155.183 138.48 154.824 138.727 154.404 138.895C153.988 139.058 153.552 139.14 153.095 139.14ZM150.855 134.856H155.055C155.055 134.408 154.98 134.004 154.831 133.645C154.681 133.286 154.453 133.001 154.145 132.791C153.841 132.581 153.456 132.476 152.99 132.476C152.5 132.476 152.096 132.595 151.779 132.833C151.461 133.066 151.226 133.365 151.072 133.729C150.922 134.093 150.85 134.469 150.855 134.856ZM161.413 139V131.762H162.477V139H161.413ZM161.364 130.089V128.885H162.512V130.089H161.364ZM164.85 139V131.762H165.9V132.819C166.022 132.609 166.187 132.415 166.397 132.238C166.612 132.061 166.871 131.918 167.174 131.811C167.482 131.704 167.828 131.65 168.21 131.65C168.677 131.65 169.102 131.743 169.484 131.93C169.872 132.112 170.18 132.397 170.408 132.784C170.637 133.171 170.751 133.668 170.751 134.275V139H169.659V134.373C169.659 133.757 169.503 133.302 169.19 133.008C168.878 132.714 168.465 132.567 167.951 132.567C167.601 132.567 167.272 132.623 166.964 132.735C166.656 132.847 166.409 133.017 166.222 133.246C166.036 133.475 165.942 133.762 165.942 134.107V139H164.85ZM175.075 139.028C174.613 139.028 174.253 138.963 173.997 138.832C173.745 138.701 173.567 138.508 173.465 138.251C173.362 137.994 173.311 137.672 173.311 137.285V132.581H172.135V131.762H173.339L173.598 129.676H174.41V131.755H176.048V132.581H174.41V137.25C174.41 137.53 174.435 137.735 174.487 137.866C174.543 137.992 174.638 138.074 174.774 138.111C174.914 138.144 175.107 138.16 175.355 138.16H176.097V138.916C176.008 138.949 175.875 138.977 175.698 139C175.525 139.019 175.317 139.028 175.075 139.028ZM180.712 139.14C180.049 139.14 179.463 138.995 178.955 138.706C178.451 138.412 178.056 137.99 177.772 137.439C177.487 136.888 177.345 136.226 177.345 135.451C177.345 134.681 177.473 134.009 177.73 133.435C177.986 132.856 178.36 132.411 178.85 132.098C179.34 131.781 179.93 131.622 180.621 131.622C181.288 131.622 181.853 131.767 182.315 132.056C182.777 132.341 183.129 132.749 183.372 133.281C183.614 133.813 183.736 134.448 183.736 135.185V135.633H178.465C178.46 136.118 178.537 136.559 178.696 136.956C178.859 137.353 179.106 137.67 179.438 137.908C179.769 138.146 180.187 138.265 180.691 138.265C181.185 138.265 181.61 138.151 181.965 137.922C182.319 137.689 182.541 137.36 182.63 136.935H183.68C183.591 137.42 183.397 137.826 183.099 138.153C182.8 138.48 182.441 138.727 182.021 138.895C181.605 139.058 181.169 139.14 180.712 139.14ZM178.472 134.856H182.672C182.672 134.408 182.597 134.004 182.448 133.645C182.298 133.286 182.07 133.001 181.762 132.791C181.458 132.581 181.073 132.476 180.607 132.476C180.117 132.476 179.713 132.595 179.396 132.833C179.078 133.066 178.843 133.365 178.689 133.729C178.539 134.093 178.467 134.469 178.472 134.856ZM185.618 139V131.762H186.654V133.071C186.775 132.73 186.946 132.455 187.165 132.245C187.389 132.03 187.639 131.874 187.914 131.776C188.194 131.673 188.476 131.622 188.761 131.622C188.878 131.622 188.992 131.631 189.104 131.65C189.216 131.664 189.305 131.69 189.37 131.727V132.791C189.295 132.754 189.195 132.728 189.069 132.714C188.948 132.7 188.845 132.693 188.761 132.693C188.504 132.679 188.255 132.698 188.012 132.749C187.769 132.8 187.548 132.891 187.347 133.022C187.151 133.153 186.995 133.328 186.878 133.547C186.766 133.766 186.71 134.035 186.71 134.352V139H185.618ZM192.72 139.14C192.248 139.14 191.833 139.058 191.474 138.895C191.119 138.727 190.841 138.489 190.641 138.181C190.445 137.873 190.347 137.502 190.347 137.068C190.347 136.265 190.622 135.67 191.173 135.283C191.723 134.896 192.612 134.686 193.84 134.653L195.233 134.611V134.009C195.233 133.538 195.09 133.162 194.806 132.882C194.521 132.597 194.08 132.457 193.483 132.462C193.035 132.462 192.645 132.567 192.314 132.777C191.987 132.982 191.779 133.314 191.691 133.771H190.697C190.725 133.318 190.851 132.933 191.075 132.616C191.303 132.294 191.625 132.049 192.041 131.881C192.456 131.708 192.953 131.622 193.532 131.622C194.134 131.622 194.638 131.711 195.044 131.888C195.454 132.061 195.765 132.322 195.975 132.672C196.185 133.017 196.29 133.447 196.29 133.96V139H195.352L195.275 137.607C194.985 138.181 194.617 138.58 194.169 138.804C193.725 139.028 193.242 139.14 192.72 139.14ZM193.028 138.321C193.284 138.321 193.543 138.274 193.805 138.181C194.066 138.088 194.304 137.959 194.519 137.796C194.733 137.633 194.906 137.451 195.037 137.25C195.167 137.049 195.233 136.844 195.233 136.634V135.346L194.071 135.367C193.459 135.376 192.958 135.437 192.566 135.549C192.174 135.661 191.884 135.834 191.698 136.067C191.511 136.296 191.418 136.597 191.418 136.97C191.418 137.395 191.567 137.726 191.866 137.964C192.164 138.202 192.552 138.321 193.028 138.321ZM201.264 139.14C200.62 139.14 200.051 139 199.556 138.72C199.061 138.44 198.674 138.022 198.394 137.467C198.119 136.912 197.981 136.223 197.981 135.402C197.981 134.651 198.105 133.993 198.352 133.428C198.604 132.859 198.975 132.415 199.465 132.098C199.955 131.781 200.555 131.622 201.264 131.622C201.759 131.622 202.209 131.715 202.615 131.902C203.021 132.089 203.357 132.357 203.623 132.707C203.894 133.052 204.064 133.47 204.134 133.96H203.14C203.093 133.689 202.988 133.447 202.825 133.232C202.662 133.013 202.447 132.84 202.181 132.714C201.92 132.588 201.616 132.525 201.271 132.525C200.613 132.525 200.076 132.761 199.661 133.232C199.246 133.699 199.038 134.42 199.038 135.395C199.038 136.268 199.225 136.968 199.598 137.495C199.976 138.018 200.538 138.279 201.285 138.279C201.626 138.279 201.927 138.216 202.188 138.09C202.454 137.959 202.669 137.787 202.832 137.572C202.995 137.353 203.1 137.112 203.147 136.851H204.127C204.057 137.327 203.887 137.738 203.616 138.083C203.35 138.424 203.014 138.685 202.608 138.867C202.202 139.049 201.754 139.14 201.264 139.14ZM208.188 139.028C207.726 139.028 207.367 138.963 207.11 138.832C206.858 138.701 206.681 138.508 206.578 138.251C206.475 137.994 206.424 137.672 206.424 137.285V132.581H205.248V131.762H206.452L206.711 129.676H207.523V131.755H209.161V132.581H207.523V137.25C207.523 137.53 207.549 137.735 207.6 137.866C207.656 137.992 207.752 138.074 207.887 138.111C208.027 138.144 208.221 138.16 208.468 138.16H209.21V138.916C209.121 138.949 208.988 138.977 208.811 139C208.638 139.019 208.431 139.028 208.188 139.028ZM213.825 139.14C213.162 139.14 212.577 138.995 212.068 138.706C211.564 138.412 211.17 137.99 210.885 137.439C210.6 136.888 210.458 136.226 210.458 135.451C210.458 134.681 210.586 134.009 210.843 133.435C211.1 132.856 211.473 132.411 211.963 132.098C212.453 131.781 213.043 131.622 213.734 131.622C214.401 131.622 214.966 131.767 215.428 132.056C215.89 132.341 216.242 132.749 216.485 133.281C216.728 133.813 216.849 134.448 216.849 135.185V135.633H211.578C211.573 136.118 211.65 136.559 211.809 136.956C211.972 137.353 212.22 137.67 212.551 137.908C212.882 138.146 213.3 138.265 213.804 138.265C214.299 138.265 214.723 138.151 215.078 137.922C215.433 137.689 215.654 137.36 215.743 136.935H216.793C216.704 137.42 216.511 137.826 216.212 138.153C215.913 138.48 215.554 138.727 215.134 138.895C214.719 139.058 214.282 139.14 213.825 139.14ZM211.585 134.856H215.785C215.785 134.408 215.71 134.004 215.561 133.645C215.412 133.286 215.183 133.001 214.875 132.791C214.572 132.581 214.187 132.476 213.72 132.476C213.23 132.476 212.826 132.595 212.509 132.833C212.192 133.066 211.956 133.365 211.802 133.729C211.653 134.093 211.58 134.469 211.585 134.856ZM221.342 139.14C220.414 139.14 219.674 138.823 219.123 138.188C218.573 137.549 218.297 136.604 218.297 135.353C218.297 134.602 218.407 133.948 218.626 133.393C218.846 132.833 219.175 132.399 219.613 132.091C220.057 131.778 220.61 131.622 221.272 131.622C221.641 131.622 221.965 131.671 222.245 131.769C222.525 131.862 222.763 131.981 222.959 132.126C223.16 132.271 223.319 132.418 223.435 132.567C223.557 132.716 223.645 132.845 223.701 132.952V128.598H224.8V139H223.939L223.827 137.516C223.785 137.642 223.715 137.796 223.617 137.978C223.519 138.16 223.377 138.34 223.19 138.517C223.004 138.694 222.759 138.844 222.455 138.965C222.157 139.082 221.786 139.14 221.342 139.14ZM221.517 138.272C222.306 138.272 222.866 138.039 223.197 137.572C223.533 137.101 223.701 136.338 223.701 135.283C223.692 134.7 223.615 134.2 223.47 133.785C223.33 133.37 223.104 133.052 222.791 132.833C222.483 132.609 222.068 132.497 221.545 132.497C220.911 132.497 220.395 132.721 219.998 133.169C219.602 133.617 219.403 134.322 219.403 135.283C219.403 136.216 219.581 136.949 219.935 137.481C220.29 138.008 220.817 138.272 221.517 138.272ZM231.905 139L229.7 131.762H230.729L232.465 137.614H232.591L234.299 131.762H235.146L236.938 137.6H237.071L238.723 131.762H239.766L237.617 139H236.441L234.712 133.393L233.081 139H231.905ZM241.339 139V131.762H242.403V139H241.339ZM241.29 130.089V128.885H242.438V130.089H241.29ZM247.208 139.028C246.746 139.028 246.386 138.963 246.13 138.832C245.878 138.701 245.7 138.508 245.598 138.251C245.495 137.994 245.444 137.672 245.444 137.285V132.581H244.268V131.762H245.472L245.731 129.676H246.543V131.755H248.181V132.581H246.543V137.25C246.543 137.53 246.568 137.735 246.62 137.866C246.676 137.992 246.771 138.074 246.907 138.111C247.047 138.144 247.24 138.16 247.488 138.16H248.23V138.916C248.141 138.949 248.008 138.977 247.831 139C247.658 139.019 247.45 139.028 247.208 139.028ZM250.026 139V128.598H251.083V132.826C251.209 132.621 251.377 132.429 251.587 132.252C251.802 132.075 252.059 131.932 252.357 131.825C252.661 131.713 253.006 131.657 253.393 131.657C253.869 131.657 254.296 131.743 254.674 131.916C255.057 132.089 255.36 132.334 255.584 132.651C255.808 132.968 255.92 133.342 255.92 133.771V139H254.828V134.016C254.828 133.559 254.672 133.204 254.359 132.952C254.047 132.695 253.634 132.567 253.12 132.567C252.77 132.567 252.441 132.625 252.133 132.742C251.83 132.854 251.585 133.024 251.398 133.253C251.212 133.477 251.118 133.764 251.118 134.114V139H250.026ZM263.499 139.14C263.028 139.14 262.612 139.058 262.253 138.895C261.898 138.727 261.621 138.489 261.42 138.181C261.224 137.873 261.126 137.502 261.126 137.068C261.126 136.265 261.401 135.67 261.952 135.283C262.503 134.896 263.392 134.686 264.619 134.653L266.012 134.611V134.009C266.012 133.538 265.87 133.162 265.585 132.882C265.3 132.597 264.859 132.457 264.262 132.462C263.814 132.462 263.424 132.567 263.093 132.777C262.766 132.982 262.559 133.314 262.47 133.771H261.476C261.504 133.318 261.63 132.933 261.854 132.616C262.083 132.294 262.405 132.049 262.82 131.881C263.235 131.708 263.732 131.622 264.311 131.622C264.913 131.622 265.417 131.711 265.823 131.888C266.234 132.061 266.544 132.322 266.754 132.672C266.964 133.017 267.069 133.447 267.069 133.96V139H266.131L266.054 137.607C265.765 138.181 265.396 138.58 264.948 138.804C264.505 139.028 264.022 139.14 263.499 139.14ZM263.807 138.321C264.064 138.321 264.323 138.274 264.584 138.181C264.845 138.088 265.083 137.959 265.298 137.796C265.513 137.633 265.685 137.451 265.816 137.25C265.947 137.049 266.012 136.844 266.012 136.634V135.346L264.85 135.367C264.239 135.376 263.737 135.437 263.345 135.549C262.953 135.661 262.664 135.834 262.477 136.067C262.29 136.296 262.197 136.597 262.197 136.97C262.197 137.395 262.346 137.726 262.645 137.964C262.944 138.202 263.331 138.321 263.807 138.321ZM269.194 139V131.762H270.244V132.819C270.366 132.609 270.531 132.415 270.741 132.238C270.956 132.061 271.215 131.918 271.518 131.811C271.826 131.704 272.172 131.65 272.554 131.65C273.021 131.65 273.446 131.743 273.828 131.93C274.216 132.112 274.524 132.397 274.752 132.784C274.981 133.171 275.095 133.668 275.095 134.275V139H274.003V134.373C274.003 133.757 273.847 133.302 273.534 133.008C273.222 132.714 272.809 132.567 272.295 132.567C271.945 132.567 271.616 132.623 271.308 132.735C271 132.847 270.753 133.017 270.566 133.246C270.38 133.475 270.286 133.762 270.286 134.107V139H269.194ZM277.603 141.31C277.197 141.31 276.92 141.282 276.77 141.226C276.626 141.175 276.553 141.149 276.553 141.149V140.435L277.302 140.442C277.559 140.451 277.774 140.433 277.946 140.386C278.119 140.339 278.259 140.274 278.366 140.19C278.478 140.111 278.565 140.02 278.625 139.917C278.691 139.819 278.742 139.721 278.779 139.623L279.066 138.86L276.238 131.762H277.351L279.598 137.586L281.817 131.762H282.881L279.801 139.679C279.633 140.099 279.44 140.426 279.22 140.659C279.001 140.897 278.756 141.065 278.485 141.163C278.215 141.261 277.921 141.31 277.603 141.31ZM290.315 139.14C289.811 139.14 289.347 139.063 288.922 138.909C288.502 138.75 288.154 138.51 287.879 138.188C287.604 137.861 287.433 137.446 287.368 136.942H288.383C288.444 137.231 288.56 137.476 288.733 137.677C288.91 137.878 289.132 138.032 289.398 138.139C289.669 138.242 289.972 138.293 290.308 138.293C290.821 138.293 291.234 138.195 291.547 137.999C291.864 137.798 292.023 137.493 292.023 137.082C292.023 136.797 291.941 136.569 291.778 136.396C291.619 136.223 291.374 136.097 291.043 136.018L289.489 135.619C288.92 135.474 288.465 135.257 288.124 134.968C287.788 134.674 287.62 134.266 287.62 133.743C287.62 133.328 287.718 132.961 287.914 132.644C288.115 132.327 288.413 132.077 288.81 131.895C289.207 131.713 289.704 131.622 290.301 131.622C291.057 131.622 291.668 131.792 292.135 132.133C292.606 132.474 292.854 132.982 292.877 133.659H291.89C291.843 133.29 291.682 132.999 291.407 132.784C291.136 132.565 290.765 132.455 290.294 132.455C289.804 132.455 289.405 132.555 289.097 132.756C288.789 132.957 288.635 133.267 288.635 133.687C288.635 133.967 288.74 134.186 288.95 134.345C289.165 134.499 289.473 134.627 289.874 134.73L291.4 135.129C291.717 135.213 291.979 135.325 292.184 135.465C292.394 135.6 292.56 135.754 292.681 135.927C292.807 136.095 292.896 136.275 292.947 136.466C292.998 136.657 293.024 136.842 293.024 137.019C293.024 137.453 292.919 137.829 292.709 138.146C292.504 138.463 292.198 138.708 291.792 138.881C291.391 139.054 290.898 139.14 290.315 139.14ZM294.851 139V131.762H295.915V139H294.851ZM294.802 130.089V128.885H295.95V130.089H294.802ZM300.719 139.028C300.257 139.028 299.898 138.963 299.641 138.832C299.389 138.701 299.212 138.508 299.109 138.251C299.007 137.994 298.955 137.672 298.955 137.285V132.581H297.779V131.762H298.983L299.242 129.676H300.054V131.755H301.692V132.581H300.054V137.25C300.054 137.53 300.08 137.735 300.131 137.866C300.187 137.992 300.283 138.074 300.418 138.111C300.558 138.144 300.752 138.16 300.999 138.16H301.741V138.916C301.653 138.949 301.52 138.977 301.342 139C301.17 139.019 300.962 139.028 300.719 139.028ZM306.356 139.14C305.694 139.14 305.108 138.995 304.599 138.706C304.095 138.412 303.701 137.99 303.416 137.439C303.132 136.888 302.989 136.226 302.989 135.451C302.989 134.681 303.118 134.009 303.374 133.435C303.631 132.856 304.004 132.411 304.494 132.098C304.984 131.781 305.575 131.622 306.265 131.622C306.933 131.622 307.497 131.767 307.959 132.056C308.421 132.341 308.774 132.749 309.016 133.281C309.259 133.813 309.38 134.448 309.38 135.185V135.633H304.109C304.105 136.118 304.182 136.559 304.34 136.956C304.504 137.353 304.751 137.67 305.082 137.908C305.414 138.146 305.831 138.265 306.335 138.265C306.83 138.265 307.255 138.151 307.609 137.922C307.964 137.689 308.186 137.36 308.274 136.935H309.324C309.236 137.42 309.042 137.826 308.743 138.153C308.445 138.48 308.085 138.727 307.665 138.895C307.25 139.058 306.814 139.14 306.356 139.14ZM304.116 134.856H308.316C308.316 134.408 308.242 134.004 308.092 133.645C307.943 133.286 307.714 133.001 307.406 132.791C307.103 132.581 306.718 132.476 306.251 132.476C305.761 132.476 305.358 132.595 305.04 132.833C304.723 133.066 304.487 133.365 304.333 133.729C304.184 134.093 304.112 134.469 304.116 134.856ZM313.735 139.14C313.231 139.14 312.767 139.063 312.342 138.909C311.922 138.75 311.574 138.51 311.299 138.188C311.024 137.861 310.853 137.446 310.788 136.942H311.803C311.864 137.231 311.98 137.476 312.153 137.677C312.33 137.878 312.552 138.032 312.818 138.139C313.089 138.242 313.392 138.293 313.728 138.293C314.241 138.293 314.654 138.195 314.967 137.999C315.284 137.798 315.443 137.493 315.443 137.082C315.443 136.797 315.361 136.569 315.198 136.396C315.039 136.223 314.794 136.097 314.463 136.018L312.909 135.619C312.34 135.474 311.885 135.257 311.544 134.968C311.208 134.674 311.04 134.266 311.04 133.743C311.04 133.328 311.138 132.961 311.334 132.644C311.535 132.327 311.833 132.077 312.23 131.895C312.627 131.713 313.124 131.622 313.721 131.622C314.477 131.622 315.088 131.792 315.555 132.133C316.026 132.474 316.274 132.982 316.297 133.659H315.31C315.263 133.29 315.102 132.999 314.827 132.784C314.556 132.565 314.185 132.455 313.714 132.455C313.224 132.455 312.825 132.555 312.517 132.756C312.209 132.957 312.055 133.267 312.055 133.687C312.055 133.967 312.16 134.186 312.37 134.345C312.585 134.499 312.893 134.627 313.294 134.73L314.82 135.129C315.137 135.213 315.399 135.325 315.604 135.465C315.814 135.6 315.98 135.754 316.101 135.927C316.227 136.095 316.316 136.275 316.367 136.466C316.418 136.657 316.444 136.842 316.444 137.019C316.444 137.453 316.339 137.829 316.129 138.146C315.924 138.463 315.618 138.708 315.212 138.881C314.811 139.054 314.318 139.14 313.735 139.14ZM317.298 139.616L320.791 128.878H321.687L318.187 139.616H317.298ZM134.423 161.14C133.951 161.14 133.536 161.058 133.177 160.895C132.822 160.727 132.544 160.489 132.344 160.181C132.148 159.873 132.05 159.502 132.05 159.068C132.05 158.265 132.325 157.67 132.876 157.283C133.426 156.896 134.315 156.686 135.543 156.653L136.936 156.611V156.009C136.936 155.538 136.793 155.162 136.509 154.882C136.224 154.597 135.783 154.457 135.186 154.462C134.738 154.462 134.348 154.567 134.017 154.777C133.69 154.982 133.482 155.314 133.394 155.771H132.4C132.428 155.318 132.554 154.933 132.778 154.616C133.006 154.294 133.328 154.049 133.744 153.881C134.159 153.708 134.656 153.622 135.235 153.622C135.837 153.622 136.341 153.711 136.747 153.888C137.157 154.061 137.468 154.322 137.678 154.672C137.888 155.017 137.993 155.447 137.993 155.96V161H137.055L136.978 159.607C136.688 160.181 136.32 160.58 135.872 160.804C135.428 161.028 134.945 161.14 134.423 161.14ZM134.731 160.321C134.987 160.321 135.246 160.274 135.508 160.181C135.769 160.088 136.007 159.959 136.222 159.796C136.436 159.633 136.609 159.451 136.74 159.25C136.87 159.049 136.936 158.844 136.936 158.634V157.346L135.774 157.367C135.162 157.376 134.661 157.437 134.269 157.549C133.877 157.661 133.587 157.834 133.401 158.067C133.214 158.296 133.121 158.597 133.121 158.97C133.121 159.395 133.27 159.726 133.569 159.964C133.867 160.202 134.255 160.321 134.731 160.321ZM140.118 163.254V153.762H141.203L141.224 155.085C141.294 154.94 141.392 154.784 141.518 154.616C141.649 154.448 141.812 154.289 142.008 154.14C142.204 153.986 142.435 153.862 142.701 153.769C142.972 153.671 143.282 153.622 143.632 153.622C144.22 153.622 144.738 153.753 145.186 154.014C145.634 154.275 145.982 154.677 146.229 155.218C146.481 155.759 146.607 156.445 146.607 157.276C146.607 158.088 146.488 158.783 146.25 159.362C146.017 159.936 145.674 160.377 145.221 160.685C144.768 160.988 144.215 161.14 143.562 161.14C143.212 161.14 142.906 161.091 142.645 160.993C142.384 160.895 142.16 160.767 141.973 160.608C141.786 160.449 141.632 160.286 141.511 160.118C141.39 159.945 141.292 159.782 141.217 159.628V163.254H140.118ZM143.38 160.265C144.019 160.265 144.537 160.025 144.934 159.544C145.335 159.063 145.536 158.321 145.536 157.318C145.536 156.459 145.354 155.776 144.99 155.267C144.631 154.754 144.094 154.497 143.38 154.497C142.671 154.497 142.129 154.756 141.756 155.274C141.387 155.792 141.203 156.473 141.203 157.318C141.203 157.869 141.285 158.368 141.448 158.816C141.616 159.259 141.861 159.612 142.183 159.873C142.505 160.134 142.904 160.265 143.38 160.265ZM148.417 163.254V153.762H149.502L149.523 155.085C149.593 154.94 149.691 154.784 149.817 154.616C149.948 154.448 150.111 154.289 150.307 154.14C150.503 153.986 150.734 153.862 151 153.769C151.271 153.671 151.581 153.622 151.931 153.622C152.519 153.622 153.037 153.753 153.485 154.014C153.933 154.275 154.281 154.677 154.528 155.218C154.78 155.759 154.906 156.445 154.906 157.276C154.906 158.088 154.787 158.783 154.549 159.362C154.316 159.936 153.973 160.377 153.52 160.685C153.067 160.988 152.514 161.14 151.861 161.14C151.511 161.14 151.205 161.091 150.944 160.993C150.683 160.895 150.459 160.767 150.272 160.608C150.085 160.449 149.931 160.286 149.81 160.118C149.689 159.945 149.591 159.782 149.516 159.628V163.254H148.417ZM151.679 160.265C152.318 160.265 152.836 160.025 153.233 159.544C153.634 159.063 153.835 158.321 153.835 157.318C153.835 156.459 153.653 155.776 153.289 155.267C152.93 154.754 152.393 154.497 151.679 154.497C150.97 154.497 150.428 154.756 150.055 155.274C149.686 155.792 149.502 156.473 149.502 157.318C149.502 157.869 149.584 158.368 149.747 158.816C149.915 159.259 150.16 159.612 150.482 159.873C150.804 160.134 151.203 160.265 151.679 160.265ZM159.188 161.14C158.684 161.14 158.22 161.063 157.795 160.909C157.375 160.75 157.027 160.51 156.752 160.188C156.477 159.861 156.306 159.446 156.241 158.942H157.256C157.317 159.231 157.433 159.476 157.606 159.677C157.783 159.878 158.005 160.032 158.271 160.139C158.542 160.242 158.845 160.293 159.181 160.293C159.694 160.293 160.107 160.195 160.42 159.999C160.737 159.798 160.896 159.493 160.896 159.082C160.896 158.797 160.814 158.569 160.651 158.396C160.492 158.223 160.247 158.097 159.916 158.018L158.362 157.619C157.793 157.474 157.338 157.257 156.997 156.968C156.661 156.674 156.493 156.266 156.493 155.743C156.493 155.328 156.591 154.961 156.787 154.644C156.988 154.327 157.286 154.077 157.683 153.895C158.08 153.713 158.577 153.622 159.174 153.622C159.93 153.622 160.541 153.792 161.008 154.133C161.479 154.474 161.727 154.982 161.75 155.659H160.763C160.716 155.29 160.555 154.999 160.28 154.784C160.009 154.565 159.638 154.455 159.167 154.455C158.677 154.455 158.278 154.555 157.97 154.756C157.662 154.957 157.508 155.267 157.508 155.687C157.508 155.967 157.613 156.186 157.823 156.345C158.038 156.499 158.346 156.627 158.747 156.73L160.273 157.129C160.59 157.213 160.852 157.325 161.057 157.465C161.267 157.6 161.433 157.754 161.554 157.927C161.68 158.095 161.769 158.275 161.82 158.466C161.871 158.657 161.897 158.842 161.897 159.019C161.897 159.453 161.792 159.829 161.582 160.146C161.377 160.463 161.071 160.708 160.665 160.881C160.264 161.054 159.771 161.14 159.188 161.14ZM169.753 161.14C169.365 161.135 169.004 161.082 168.668 160.979C168.332 160.872 168.035 160.715 167.779 160.51C167.527 160.3 167.328 160.041 167.184 159.733C167.044 159.42 166.974 159.059 166.974 158.648V153.762H168.066V158.55C168.066 159.059 168.22 159.472 168.528 159.789C168.836 160.102 169.309 160.258 169.949 160.258C170.518 160.258 170.975 160.111 171.321 159.817C171.666 159.518 171.839 159.068 171.839 158.466V153.762H172.924V161H172.042L171.93 159.628C171.846 159.973 171.699 160.258 171.489 160.482C171.283 160.706 171.031 160.874 170.733 160.986C170.439 161.093 170.112 161.145 169.753 161.14ZM177.686 161.14C177.182 161.14 176.718 161.063 176.293 160.909C175.873 160.75 175.525 160.51 175.25 160.188C174.975 159.861 174.804 159.446 174.739 158.942H175.754C175.815 159.231 175.931 159.476 176.104 159.677C176.281 159.878 176.503 160.032 176.769 160.139C177.04 160.242 177.343 160.293 177.679 160.293C178.192 160.293 178.605 160.195 178.918 159.999C179.235 159.798 179.394 159.493 179.394 159.082C179.394 158.797 179.312 158.569 179.149 158.396C178.99 158.223 178.745 158.097 178.414 158.018L176.86 157.619C176.291 157.474 175.836 157.257 175.495 156.968C175.159 156.674 174.991 156.266 174.991 155.743C174.991 155.328 175.089 154.961 175.285 154.644C175.486 154.327 175.784 154.077 176.181 153.895C176.578 153.713 177.075 153.622 177.672 153.622C178.428 153.622 179.039 153.792 179.506 154.133C179.977 154.474 180.225 154.982 180.248 155.659H179.261C179.214 155.29 179.053 154.999 178.778 154.784C178.507 154.565 178.136 154.455 177.665 154.455C177.175 154.455 176.776 154.555 176.468 154.756C176.16 154.957 176.006 155.267 176.006 155.687C176.006 155.967 176.111 156.186 176.321 156.345C176.536 156.499 176.844 156.627 177.245 156.73L178.771 157.129C179.088 157.213 179.35 157.325 179.555 157.465C179.765 157.6 179.931 157.754 180.052 157.927C180.178 158.095 180.267 158.275 180.318 158.466C180.369 158.657 180.395 158.842 180.395 159.019C180.395 159.453 180.29 159.829 180.08 160.146C179.875 160.463 179.569 160.708 179.163 160.881C178.762 161.054 178.269 161.14 177.686 161.14ZM182.222 161V153.762H183.286V161H182.222ZM182.173 152.089V150.885H183.321V152.089H182.173ZM185.659 161V153.762H186.709V154.819C186.83 154.609 186.996 154.415 187.206 154.238C187.421 154.061 187.68 153.918 187.983 153.811C188.291 153.704 188.636 153.65 189.019 153.65C189.486 153.65 189.91 153.743 190.293 153.93C190.68 154.112 190.988 154.397 191.217 154.784C191.446 155.171 191.56 155.668 191.56 156.275V161H190.468V156.373C190.468 155.757 190.312 155.302 189.999 155.008C189.686 154.714 189.273 154.567 188.76 154.567C188.41 154.567 188.081 154.623 187.773 154.735C187.465 154.847 187.218 155.017 187.031 155.246C186.844 155.475 186.751 155.762 186.751 156.107V161H185.659ZM196.66 163.394C195.563 163.394 194.702 163.228 194.077 162.897C193.451 162.57 193.139 162.09 193.139 161.455C193.139 161.189 193.197 160.963 193.314 160.776C193.435 160.585 193.58 160.426 193.748 160.3C193.916 160.174 194.07 160.074 194.21 159.999C194.354 159.92 194.45 159.861 194.497 159.824C194.413 159.773 194.315 159.714 194.203 159.649C194.095 159.579 194 159.49 193.916 159.383C193.832 159.271 193.79 159.129 193.79 158.956C193.79 158.737 193.892 158.536 194.098 158.354C194.308 158.167 194.613 158.027 195.015 157.934C194.604 157.719 194.28 157.439 194.042 157.094C193.808 156.744 193.692 156.361 193.692 155.946C193.692 155.479 193.811 155.073 194.049 154.728C194.291 154.383 194.641 154.117 195.099 153.93C195.561 153.743 196.116 153.65 196.765 153.65C197.231 153.65 197.623 153.706 197.941 153.818C198.263 153.925 198.564 154.084 198.844 154.294C198.909 154.261 199.021 154.212 199.18 154.147C199.338 154.082 199.513 154.012 199.705 153.937C199.896 153.858 200.073 153.783 200.237 153.713C200.4 153.643 200.526 153.589 200.615 153.552L200.608 154.644L199.334 154.896C199.413 155.055 199.476 155.227 199.523 155.414C199.574 155.596 199.6 155.771 199.6 155.939C199.6 156.368 199.49 156.756 199.271 157.101C199.056 157.442 198.729 157.71 198.291 157.906C197.857 158.102 197.311 158.2 196.653 158.2C196.601 158.2 196.541 158.2 196.471 158.2C196.405 158.2 196.347 158.198 196.296 158.193C195.736 158.207 195.353 158.27 195.148 158.382C194.942 158.489 194.84 158.604 194.84 158.725C194.84 158.865 194.945 158.965 195.155 159.026C195.365 159.082 195.731 159.129 196.254 159.166C196.44 159.175 196.667 159.187 196.933 159.201C197.203 159.215 197.507 159.234 197.843 159.257C198.566 159.299 199.128 159.486 199.53 159.817C199.936 160.148 200.139 160.606 200.139 161.189C200.139 161.838 199.852 162.367 199.278 162.778C198.708 163.189 197.836 163.394 196.66 163.394ZM196.856 162.645C197.551 162.645 198.092 162.535 198.48 162.316C198.867 162.101 199.061 161.772 199.061 161.329C199.061 161.021 198.946 160.769 198.718 160.573C198.494 160.372 198.148 160.256 197.682 160.223L195.547 160.09C195.374 160.081 195.185 160.13 194.98 160.237C194.774 160.34 194.597 160.487 194.448 160.678C194.303 160.869 194.231 161.086 194.231 161.329C194.231 161.74 194.445 162.062 194.875 162.295C195.304 162.528 195.964 162.645 196.856 162.645ZM196.681 157.458C197.241 157.458 197.691 157.332 198.032 157.08C198.377 156.828 198.55 156.45 198.55 155.946C198.55 155.428 198.377 155.036 198.032 154.77C197.691 154.504 197.241 154.371 196.681 154.371C196.111 154.371 195.652 154.506 195.302 154.777C194.956 155.043 194.784 155.433 194.784 155.946C194.784 156.427 194.949 156.8 195.281 157.066C195.612 157.327 196.079 157.458 196.681 157.458ZM206.098 161V150.878H207.568L210.823 159.551L214.127 150.878H215.583V161H214.449V152.698L211.376 161H210.277L207.232 152.782V161H206.098ZM221.03 161.14C220.367 161.14 219.782 160.995 219.273 160.706C218.769 160.412 218.375 159.99 218.09 159.439C217.805 158.888 217.663 158.226 217.663 157.451C217.663 156.681 217.791 156.009 218.048 155.435C218.305 154.856 218.678 154.411 219.168 154.098C219.658 153.781 220.248 153.622 220.939 153.622C221.606 153.622 222.171 153.767 222.633 154.056C223.095 154.341 223.447 154.749 223.69 155.281C223.933 155.813 224.054 156.448 224.054 157.185V157.633H218.783C218.778 158.118 218.855 158.559 219.014 158.956C219.177 159.353 219.425 159.67 219.756 159.908C220.087 160.146 220.505 160.265 221.009 160.265C221.504 160.265 221.928 160.151 222.283 159.922C222.638 159.689 222.859 159.36 222.948 158.935H223.998C223.909 159.42 223.716 159.826 223.417 160.153C223.118 160.48 222.759 160.727 222.339 160.895C221.924 161.058 221.487 161.14 221.03 161.14ZM218.79 156.856H222.99C222.99 156.408 222.915 156.004 222.766 155.645C222.617 155.286 222.388 155.001 222.08 154.791C221.777 154.581 221.392 154.476 220.925 154.476C220.435 154.476 220.031 154.595 219.714 154.833C219.397 155.066 219.161 155.365 219.007 155.729C218.858 156.093 218.785 156.469 218.79 156.856ZM228.932 161.14C228.27 161.14 227.684 160.995 227.175 160.706C226.671 160.412 226.277 159.99 225.992 159.439C225.708 158.888 225.565 158.226 225.565 157.451C225.565 156.681 225.694 156.009 225.95 155.435C226.207 154.856 226.58 154.411 227.07 154.098C227.56 153.781 228.151 153.622 228.841 153.622C229.509 153.622 230.073 153.767 230.535 154.056C230.997 154.341 231.35 154.749 231.592 155.281C231.835 155.813 231.956 156.448 231.956 157.185V157.633H226.685C226.681 158.118 226.758 158.559 226.916 158.956C227.08 159.353 227.327 159.67 227.658 159.908C227.99 160.146 228.407 160.265 228.911 160.265C229.406 160.265 229.831 160.151 230.185 159.922C230.54 159.689 230.762 159.36 230.85 158.935H231.9C231.812 159.42 231.618 159.826 231.319 160.153C231.021 160.48 230.661 160.727 230.241 160.895C229.826 161.058 229.39 161.14 228.932 161.14ZM226.692 156.856H230.892C230.892 156.408 230.818 156.004 230.668 155.645C230.519 155.286 230.29 155.001 229.982 154.791C229.679 154.581 229.294 154.476 228.827 154.476C228.337 154.476 227.934 154.595 227.616 154.833C227.299 155.066 227.063 155.365 226.909 155.729C226.76 156.093 226.688 156.469 226.692 156.856ZM233.51 161V159.502H234.861V161H233.51ZM88.1534 183.14C87.2528 183.14 86.4874 182.937 85.8574 182.531C85.2321 182.12 84.7538 181.528 84.4224 180.753C84.0911 179.974 83.9254 179.029 83.9254 177.918C83.9254 176.807 84.0888 175.867 84.4154 175.097C84.7468 174.327 85.2274 173.741 85.8574 173.34C86.4874 172.939 87.2528 172.738 88.1534 172.738C88.8534 172.738 89.4741 172.885 90.0154 173.179C90.5568 173.473 90.9908 173.863 91.3174 174.348C91.6441 174.833 91.8378 175.361 91.8984 175.93H90.7224C90.6431 175.524 90.4938 175.153 90.2744 174.817C90.0598 174.481 89.7728 174.213 89.4134 174.012C89.0541 173.811 88.6271 173.711 88.1324 173.711C87.4791 173.711 86.9284 173.863 86.4804 174.166C86.0371 174.469 85.7011 174.934 85.4724 175.559C85.2484 176.18 85.1364 176.971 85.1364 177.932C85.1364 179.379 85.3884 180.445 85.8924 181.131C86.4011 181.817 87.1478 182.16 88.1324 182.16C88.6271 182.16 89.0541 182.057 89.4134 181.852C89.7728 181.642 90.0598 181.367 90.2744 181.026C90.4938 180.681 90.6431 180.305 90.7224 179.899H91.8984C91.8471 180.314 91.7304 180.718 91.5484 181.11C91.3711 181.497 91.1261 181.845 90.8134 182.153C90.5054 182.456 90.1274 182.697 89.6794 182.874C89.2361 183.051 88.7274 183.14 88.1534 183.14ZM95.4917 183.077C95.1464 183.077 94.8617 183.028 94.6377 182.93C94.4184 182.827 94.2457 182.687 94.1197 182.51C93.9984 182.333 93.9144 182.13 93.8677 181.901C93.8211 181.672 93.7977 181.432 93.7977 181.18V172.598H94.8757V181.089C94.8757 181.486 94.9504 181.777 95.0997 181.964C95.2491 182.146 95.4451 182.244 95.6877 182.258L96.0937 182.265V182.979C95.9911 183.012 95.8861 183.035 95.7787 183.049C95.6714 183.068 95.5757 183.077 95.4917 183.077ZM97.921 183V175.762H98.985V183H97.921ZM97.872 174.089V172.885H99.02V174.089H97.872ZM104.112 183.14C103.468 183.14 102.898 183 102.404 182.72C101.909 182.44 101.522 182.022 101.242 181.467C100.966 180.912 100.829 180.223 100.829 179.402C100.829 178.651 100.952 177.993 101.2 177.428C101.452 176.859 101.823 176.415 102.313 176.098C102.803 175.781 103.402 175.622 104.112 175.622C104.606 175.622 105.057 175.715 105.463 175.902C105.869 176.089 106.205 176.357 106.471 176.707C106.741 177.052 106.912 177.47 106.982 177.96H105.988C105.941 177.689 105.836 177.447 105.673 177.232C105.509 177.013 105.295 176.84 105.029 176.714C104.767 176.588 104.464 176.525 104.119 176.525C103.461 176.525 102.924 176.761 102.509 177.232C102.093 177.699 101.886 178.42 101.886 179.395C101.886 180.268 102.072 180.968 102.446 181.495C102.824 182.018 103.386 182.279 104.133 182.279C104.473 182.279 104.774 182.216 105.036 182.09C105.302 181.959 105.516 181.787 105.68 181.572C105.843 181.353 105.948 181.112 105.995 180.851H106.975C106.905 181.327 106.734 181.738 106.464 182.083C106.198 182.424 105.862 182.685 105.456 182.867C105.05 183.049 104.602 183.14 104.112 183.14ZM108.768 183V172.598H109.853V179.549L113.458 175.762H114.746L112.142 178.485L114.949 183H113.766L111.414 179.227L109.853 180.83V183H108.768ZM122.596 175.965L122.225 172.878H123.653L123.261 175.965H122.596ZM120.272 175.965L119.901 172.878H121.329L120.937 175.965H120.272ZM129.648 183.14C128.77 183.14 128.014 182.939 127.38 182.538C126.75 182.132 126.264 181.544 125.924 180.774C125.588 180.004 125.42 179.066 125.42 177.96C125.42 176.854 125.592 175.911 125.938 175.132C126.283 174.353 126.775 173.76 127.415 173.354C128.054 172.943 128.812 172.738 129.69 172.738C130.175 172.738 130.635 172.824 131.069 172.997C131.503 173.17 131.89 173.408 132.231 173.711C132.571 174.01 132.844 174.35 133.05 174.733C133.26 175.116 133.379 175.515 133.407 175.93H132.231C132.165 175.543 132.014 175.183 131.776 174.852C131.542 174.516 131.244 174.245 130.88 174.04C130.52 173.835 130.119 173.732 129.676 173.732C129.06 173.732 128.518 173.884 128.052 174.187C127.59 174.486 127.23 174.948 126.974 175.573C126.722 176.194 126.596 176.982 126.596 177.939C126.596 178.676 126.673 179.311 126.827 179.843C126.981 180.375 127.195 180.811 127.471 181.152C127.746 181.488 128.073 181.738 128.451 181.901C128.833 182.06 129.251 182.139 129.704 182.139C130.156 182.139 130.551 182.06 130.887 181.901C131.223 181.738 131.503 181.528 131.727 181.271C131.951 181.014 132.121 180.739 132.238 180.445C132.354 180.146 132.417 179.862 132.427 179.591L132.455 178.618H129.893V177.792L133.582 177.799V183H132.728V181.397C132.55 181.705 132.322 181.992 132.042 182.258C131.766 182.519 131.43 182.732 131.034 182.895C130.642 183.058 130.18 183.14 129.648 183.14ZM138.917 183.14C138.254 183.14 137.668 182.995 137.16 182.706C136.656 182.412 136.261 181.99 135.977 181.439C135.692 180.888 135.55 180.226 135.55 179.451C135.55 178.681 135.678 178.009 135.935 177.435C136.191 176.856 136.565 176.411 137.055 176.098C137.545 175.781 138.135 175.622 138.826 175.622C139.493 175.622 140.058 175.767 140.52 176.056C140.982 176.341 141.334 176.749 141.577 177.281C141.819 177.813 141.941 178.448 141.941 179.185V179.633H136.67C136.665 180.118 136.742 180.559 136.901 180.956C137.064 181.353 137.311 181.67 137.643 181.908C137.974 182.146 138.392 182.265 138.896 182.265C139.39 182.265 139.815 182.151 140.17 181.922C140.524 181.689 140.746 181.36 140.835 180.935H141.885C141.796 181.42 141.602 181.826 141.304 182.153C141.005 182.48 140.646 182.727 140.226 182.895C139.81 183.058 139.374 183.14 138.917 183.14ZM136.677 178.856H140.877C140.877 178.408 140.802 178.004 140.653 177.645C140.503 177.286 140.275 177.001 139.967 176.791C139.663 176.581 139.278 176.476 138.812 176.476C138.322 176.476 137.918 176.595 137.601 176.833C137.283 177.066 137.048 177.365 136.894 177.729C136.744 178.093 136.672 178.469 136.677 178.856ZM145.995 183.028C145.533 183.028 145.173 182.963 144.917 182.832C144.665 182.701 144.487 182.508 144.385 182.251C144.282 181.994 144.231 181.672 144.231 181.285V176.581H143.055V175.762H144.259L144.518 173.676H145.33V175.755H146.968V176.581H145.33V181.25C145.33 181.53 145.355 181.735 145.407 181.866C145.463 181.992 145.558 182.074 145.694 182.111C145.834 182.144 146.027 182.16 146.275 182.16H147.017V182.916C146.928 182.949 146.795 182.977 146.618 183C146.445 183.019 146.237 183.028 145.995 183.028ZM155.87 183.14C155.385 183.14 154.923 183.082 154.484 182.965C154.05 182.844 153.656 182.666 153.301 182.433C152.951 182.2 152.662 181.913 152.433 181.572C152.209 181.227 152.062 180.825 151.992 180.368H153.147C153.241 180.774 153.418 181.115 153.679 181.39C153.941 181.661 154.265 181.866 154.652 182.006C155.04 182.141 155.46 182.209 155.912 182.209C156.374 182.209 156.797 182.134 157.179 181.985C157.562 181.836 157.868 181.623 158.096 181.348C158.325 181.073 158.439 180.741 158.439 180.354C158.439 179.939 158.306 179.598 158.04 179.332C157.774 179.066 157.352 178.854 156.773 178.695L154.645 178.128C154.188 178.007 153.782 177.843 153.427 177.638C153.077 177.433 152.802 177.16 152.601 176.819C152.401 176.478 152.3 176.054 152.3 175.545C152.3 174.99 152.454 174.502 152.762 174.082C153.07 173.662 153.488 173.335 154.015 173.102C154.547 172.869 155.147 172.752 155.814 172.752C156.598 172.752 157.254 172.89 157.781 173.165C158.313 173.44 158.715 173.8 158.985 174.243C159.261 174.686 159.398 175.155 159.398 175.65H158.264C158.218 175.16 158.073 174.773 157.83 174.488C157.592 174.203 157.294 173.998 156.934 173.872C156.575 173.746 156.19 173.683 155.779 173.683C155.023 173.683 154.447 173.858 154.05 174.208C153.654 174.558 153.455 174.978 153.455 175.468C153.455 175.916 153.595 176.266 153.875 176.518C154.16 176.765 154.566 176.959 155.093 177.099L157.207 177.659C157.791 177.804 158.253 178.009 158.593 178.275C158.939 178.536 159.186 178.84 159.335 179.185C159.485 179.526 159.559 179.892 159.559 180.284C159.559 180.83 159.408 181.32 159.104 181.754C158.801 182.183 158.374 182.522 157.823 182.769C157.273 183.016 156.622 183.14 155.87 183.14ZM163.795 183.028C163.333 183.028 162.974 182.963 162.717 182.832C162.465 182.701 162.288 182.508 162.185 182.251C162.083 181.994 162.031 181.672 162.031 181.285V176.581H160.855V175.762H162.059L162.318 173.676H163.13V175.755H164.768V176.581H163.13V181.25C163.13 181.53 163.156 181.735 163.207 181.866C163.263 181.992 163.359 182.074 163.494 182.111C163.634 182.144 163.828 182.16 164.075 182.16H164.817V182.916C164.729 182.949 164.596 182.977 164.418 183C164.246 183.019 164.038 183.028 163.795 183.028ZM168.561 183.14C168.09 183.14 167.675 183.058 167.315 182.895C166.961 182.727 166.683 182.489 166.482 182.181C166.286 181.873 166.188 181.502 166.188 181.068C166.188 180.265 166.464 179.67 167.014 179.283C167.565 178.896 168.454 178.686 169.681 178.653L171.074 178.611V178.009C171.074 177.538 170.932 177.162 170.647 176.882C170.363 176.597 169.922 176.457 169.324 176.462C168.876 176.462 168.487 176.567 168.155 176.777C167.829 176.982 167.621 177.314 167.532 177.771H166.538C166.566 177.318 166.692 176.933 166.916 176.616C167.145 176.294 167.467 176.049 167.882 175.881C168.298 175.708 168.795 175.622 169.373 175.622C169.975 175.622 170.479 175.711 170.885 175.888C171.296 176.061 171.606 176.322 171.816 176.672C172.026 177.017 172.131 177.447 172.131 177.96V183H171.193L171.116 181.607C170.827 182.181 170.458 182.58 170.01 182.804C169.567 183.028 169.084 183.14 168.561 183.14ZM168.869 182.321C169.126 182.321 169.385 182.274 169.646 182.181C169.908 182.088 170.146 181.959 170.36 181.796C170.575 181.633 170.748 181.451 170.878 181.25C171.009 181.049 171.074 180.844 171.074 180.634V179.346L169.912 179.367C169.301 179.376 168.799 179.437 168.407 179.549C168.015 179.661 167.726 179.834 167.539 180.067C167.353 180.296 167.259 180.597 167.259 180.97C167.259 181.395 167.409 181.726 167.707 181.964C168.006 182.202 168.393 182.321 168.869 182.321ZM174.257 183V175.762H175.293V177.071C175.414 176.73 175.584 176.455 175.804 176.245C176.028 176.03 176.277 175.874 176.553 175.776C176.833 175.673 177.115 175.622 177.4 175.622C177.516 175.622 177.631 175.631 177.743 175.65C177.855 175.664 177.943 175.69 178.009 175.727V176.791C177.934 176.754 177.834 176.728 177.708 176.714C177.586 176.7 177.484 176.693 177.4 176.693C177.143 176.679 176.893 176.698 176.651 176.749C176.408 176.8 176.186 176.891 175.986 177.022C175.79 177.153 175.633 177.328 175.517 177.547C175.405 177.766 175.349 178.035 175.349 178.352V183H174.257ZM181.924 183.028C181.462 183.028 181.103 182.963 180.846 182.832C180.594 182.701 180.417 182.508 180.314 182.251C180.212 181.994 180.16 181.672 180.16 181.285V176.581H178.984V175.762H180.188L180.447 173.676H181.259V175.755H182.897V176.581H181.259V181.25C181.259 181.53 181.285 181.735 181.336 181.866C181.392 181.992 181.488 182.074 181.623 182.111C181.763 182.144 181.957 182.16 182.204 182.16H182.946V182.916C182.858 182.949 182.725 182.977 182.547 183C182.375 183.019 182.167 183.028 181.924 183.028ZM187.561 183.14C186.899 183.14 186.313 182.995 185.804 182.706C185.3 182.412 184.906 181.99 184.621 181.439C184.337 180.888 184.194 180.226 184.194 179.451C184.194 178.681 184.323 178.009 184.579 177.435C184.836 176.856 185.209 176.411 185.699 176.098C186.189 175.781 186.78 175.622 187.47 175.622C188.138 175.622 188.702 175.767 189.164 176.056C189.626 176.341 189.979 176.749 190.221 177.281C190.464 177.813 190.585 178.448 190.585 179.185V179.633H185.314C185.31 180.118 185.387 180.559 185.545 180.956C185.709 181.353 185.956 181.67 186.287 181.908C186.619 182.146 187.036 182.265 187.54 182.265C188.035 182.265 188.46 182.151 188.814 181.922C189.169 181.689 189.391 181.36 189.479 180.935H190.529C190.441 181.42 190.247 181.826 189.948 182.153C189.65 182.48 189.29 182.727 188.87 182.895C188.455 183.058 188.019 183.14 187.561 183.14ZM185.321 178.856H189.521C189.521 178.408 189.447 178.004 189.297 177.645C189.148 177.286 188.919 177.001 188.611 176.791C188.308 176.581 187.923 176.476 187.456 176.476C186.966 176.476 186.563 176.595 186.245 176.833C185.928 177.066 185.692 177.365 185.538 177.729C185.389 178.093 185.317 178.469 185.321 178.856ZM195.079 183.14C194.15 183.14 193.41 182.823 192.86 182.188C192.309 181.549 192.034 180.604 192.034 179.353C192.034 178.602 192.143 177.948 192.363 177.393C192.582 176.833 192.911 176.399 193.35 176.091C193.793 175.778 194.346 175.622 195.009 175.622C195.377 175.622 195.702 175.671 195.982 175.769C196.262 175.862 196.5 175.981 196.696 176.126C196.896 176.271 197.055 176.418 197.172 176.567C197.293 176.716 197.382 176.845 197.438 176.952V172.598H198.537V183H197.676L197.564 181.516C197.522 181.642 197.452 181.796 197.354 181.978C197.256 182.16 197.113 182.34 196.927 182.517C196.74 182.694 196.495 182.844 196.192 182.965C195.893 183.082 195.522 183.14 195.079 183.14ZM195.254 182.272C196.042 182.272 196.602 182.039 196.934 181.572C197.27 181.101 197.438 180.338 197.438 179.283C197.428 178.7 197.351 178.2 197.207 177.785C197.067 177.37 196.84 177.052 196.528 176.833C196.22 176.609 195.804 176.497 195.282 176.497C194.647 176.497 194.131 176.721 193.735 177.169C193.338 177.617 193.14 178.322 193.14 179.283C193.14 180.216 193.317 180.949 193.672 181.481C194.026 182.008 194.554 182.272 195.254 182.272ZM203.233 175.965L202.862 172.878H204.29L203.898 175.965H203.233ZM200.909 175.965L200.538 172.878H201.966L201.574 175.965H200.909ZM212.385 183.028C211.923 183.028 211.564 182.963 211.307 182.832C211.055 182.701 210.878 182.508 210.775 182.251C210.673 181.994 210.621 181.672 210.621 181.285V176.581H209.445V175.762H210.649L210.908 173.676H211.72V175.755H213.358V176.581H211.72V181.25C211.72 181.53 211.746 181.735 211.797 181.866C211.853 181.992 211.949 182.074 212.084 182.111C212.224 182.144 212.418 182.16 212.665 182.16H213.407V182.916C213.319 182.949 213.186 182.977 213.008 183C212.836 183.019 212.628 183.028 212.385 183.028ZM217.861 183.14C217.203 183.14 216.629 183 216.139 182.72C215.649 182.435 215.269 182.015 214.998 181.46C214.728 180.905 214.592 180.221 214.592 179.409C214.592 178.653 214.716 177.99 214.963 177.421C215.211 176.852 215.577 176.411 216.062 176.098C216.552 175.781 217.152 175.622 217.861 175.622C218.515 175.622 219.084 175.767 219.569 176.056C220.055 176.341 220.43 176.765 220.696 177.33C220.967 177.89 221.102 178.583 221.102 179.409C221.102 180.146 220.979 180.795 220.731 181.355C220.489 181.915 220.127 182.354 219.646 182.671C219.17 182.984 218.575 183.14 217.861 183.14ZM217.861 182.258C218.314 182.258 218.701 182.146 219.023 181.922C219.345 181.698 219.59 181.371 219.758 180.942C219.926 180.513 220.01 179.992 220.01 179.381C220.01 178.83 219.936 178.338 219.786 177.904C219.642 177.47 219.411 177.129 219.093 176.882C218.776 176.63 218.365 176.504 217.861 176.504C217.404 176.504 217.012 176.616 216.685 176.84C216.359 177.059 216.109 177.384 215.936 177.813C215.768 178.242 215.684 178.765 215.684 179.381C215.684 179.932 215.759 180.424 215.908 180.858C216.058 181.287 216.293 181.628 216.615 181.88C216.937 182.132 217.353 182.258 217.861 182.258ZM228.908 183.14C228.264 183.14 227.695 183 227.2 182.72C226.706 182.44 226.318 182.022 226.038 181.467C225.763 180.912 225.625 180.223 225.625 179.402C225.625 178.651 225.749 177.993 225.996 177.428C226.248 176.859 226.619 176.415 227.109 176.098C227.599 175.781 228.199 175.622 228.908 175.622C229.403 175.622 229.853 175.715 230.259 175.902C230.665 176.089 231.001 176.357 231.267 176.707C231.538 177.052 231.708 177.47 231.778 177.96H230.784C230.738 177.689 230.633 177.447 230.469 177.232C230.306 177.013 230.091 176.84 229.825 176.714C229.564 176.588 229.261 176.525 228.915 176.525C228.257 176.525 227.721 176.761 227.305 177.232C226.89 177.699 226.682 178.42 226.682 179.395C226.682 180.268 226.869 180.968 227.242 181.495C227.62 182.018 228.183 182.279 228.929 182.279C229.27 182.279 229.571 182.216 229.832 182.09C230.098 181.959 230.313 181.787 230.476 181.572C230.64 181.353 230.745 181.112 230.791 180.851H231.771C231.701 181.327 231.531 181.738 231.26 182.083C230.994 182.424 230.658 182.685 230.252 182.867C229.846 183.049 229.398 183.14 228.908 183.14ZM236.441 183.14C235.783 183.14 235.209 183 234.719 182.72C234.229 182.435 233.849 182.015 233.578 181.46C233.308 180.905 233.172 180.221 233.172 179.409C233.172 178.653 233.296 177.99 233.543 177.421C233.791 176.852 234.157 176.411 234.642 176.098C235.132 175.781 235.732 175.622 236.441 175.622C237.095 175.622 237.664 175.767 238.149 176.056C238.635 176.341 239.01 176.765 239.276 177.33C239.547 177.89 239.682 178.583 239.682 179.409C239.682 180.146 239.559 180.795 239.311 181.355C239.069 181.915 238.707 182.354 238.226 182.671C237.75 182.984 237.155 183.14 236.441 183.14ZM236.441 182.258C236.894 182.258 237.281 182.146 237.603 181.922C237.925 181.698 238.17 181.371 238.338 180.942C238.506 180.513 238.59 179.992 238.59 179.381C238.59 178.83 238.516 178.338 238.366 177.904C238.222 177.47 237.991 177.129 237.673 176.882C237.356 176.63 236.945 176.504 236.441 176.504C235.984 176.504 235.592 176.616 235.265 176.84C234.939 177.059 234.689 177.384 234.516 177.813C234.348 178.242 234.264 178.765 234.264 179.381C234.264 179.932 234.339 180.424 234.488 180.858C234.638 181.287 234.873 181.628 235.195 181.88C235.517 182.132 235.933 182.258 236.441 182.258ZM241.481 183V175.762H242.531V176.819C242.653 176.609 242.818 176.415 243.028 176.238C243.243 176.061 243.502 175.918 243.805 175.811C244.113 175.704 244.459 175.65 244.841 175.65C245.308 175.65 245.733 175.743 246.115 175.93C246.503 176.112 246.811 176.397 247.039 176.784C247.268 177.171 247.382 177.668 247.382 178.275V183H246.29V178.373C246.29 177.757 246.134 177.302 245.821 177.008C245.509 176.714 245.096 176.567 244.582 176.567C244.232 176.567 243.903 176.623 243.595 176.735C243.287 176.847 243.04 177.017 242.853 177.246C242.667 177.475 242.573 177.762 242.573 178.107V183H241.481ZM251.706 183.028C251.244 183.028 250.884 182.963 250.628 182.832C250.376 182.701 250.198 182.508 250.096 182.251C249.993 181.994 249.942 181.672 249.942 181.285V176.581H248.766V175.762H249.97L250.229 173.676H251.041V175.755H252.679V176.581H251.041V181.25C251.041 181.53 251.066 181.735 251.118 181.866C251.174 181.992 251.269 182.074 251.405 182.111C251.545 182.144 251.738 182.16 251.986 182.16H252.728V182.916C252.639 182.949 252.506 182.977 252.329 183C252.156 183.019 251.948 183.028 251.706 183.028ZM254.573 183V175.762H255.637V183H254.573ZM254.524 174.089V172.885H255.672V174.089H254.524ZM258.011 183V175.762H259.061V176.819C259.182 176.609 259.348 176.415 259.558 176.238C259.772 176.061 260.031 175.918 260.335 175.811C260.643 175.704 260.988 175.65 261.371 175.65C261.837 175.65 262.262 175.743 262.645 175.93C263.032 176.112 263.34 176.397 263.569 176.784C263.797 177.171 263.912 177.668 263.912 178.275V183H262.82V178.373C262.82 177.757 262.663 177.302 262.351 177.008C262.038 176.714 261.625 176.567 261.112 176.567C260.762 176.567 260.433 176.623 260.125 176.735C259.817 176.847 259.569 177.017 259.383 177.246C259.196 177.475 259.103 177.762 259.103 178.107V183H258.011ZM268.682 183.14C268.295 183.135 267.933 183.082 267.597 182.979C267.261 182.872 266.965 182.715 266.708 182.51C266.456 182.3 266.258 182.041 266.113 181.733C265.973 181.42 265.903 181.059 265.903 180.648V175.762H266.995V180.55C266.995 181.059 267.149 181.472 267.457 181.789C267.765 182.102 268.239 182.258 268.878 182.258C269.448 182.258 269.905 182.111 270.25 181.817C270.596 181.518 270.768 181.068 270.768 180.466V175.762H271.853V183H270.971L270.859 181.628C270.775 181.973 270.628 182.258 270.418 182.482C270.213 182.706 269.961 182.874 269.662 182.986C269.368 183.093 269.042 183.145 268.682 183.14ZM277.085 183.14C276.422 183.14 275.836 182.995 275.328 182.706C274.824 182.412 274.429 181.99 274.145 181.439C273.86 180.888 273.718 180.226 273.718 179.451C273.718 178.681 273.846 178.009 274.103 177.435C274.359 176.856 274.733 176.411 275.223 176.098C275.713 175.781 276.303 175.622 276.994 175.622C277.661 175.622 278.226 175.767 278.688 176.056C279.15 176.341 279.502 176.749 279.745 177.281C279.987 177.813 280.109 178.448 280.109 179.185V179.633H274.838C274.833 180.118 274.91 180.559 275.069 180.956C275.232 181.353 275.479 181.67 275.811 181.908C276.142 182.146 276.56 182.265 277.064 182.265C277.558 182.265 277.983 182.151 278.338 181.922C278.692 181.689 278.914 181.36 279.003 180.935H280.053C279.964 181.42 279.77 181.826 279.472 182.153C279.173 182.48 278.814 182.727 278.394 182.895C277.978 183.058 277.542 183.14 277.085 183.14ZM274.845 178.856H279.045C279.045 178.408 278.97 178.004 278.821 177.645C278.671 177.286 278.443 177.001 278.135 176.791C277.831 176.581 277.446 176.476 276.98 176.476C276.49 176.476 276.086 176.595 275.769 176.833C275.451 177.066 275.216 177.365 275.062 177.729C274.912 178.093 274.84 178.469 274.845 178.856ZM281.662 183V181.502H283.013V183H281.662Z"
        fill="#4F868E" />
</svg>