<svg width="61" height="61" viewBox="0 0 61 61" fill="none" xmlns="http://www.w3.org/2000/svg">
<path d="M1.45674 19.3838C2.23949 19.3838 2.66348 18.9272 2.66348 18.1445V9.37116C2.66348 5.13127 4.88127 2.91348 9.12116 2.91348H17.9271C18.7098 2.91348 19.1664 2.48949 19.1664 1.70674C19.1664 0.923989 18.7098 0.5 17.9271 0.5H9.05593C3.28315 0.5 0.25 3.50054 0.25 9.2407V18.1445C0.25 18.9272 0.673989 19.3838 1.45674 19.3838ZM59.5433 19.3838C60.326 19.3838 60.75 18.9272 60.75 18.1445V9.2407C60.75 3.56577 57.7495 0.5 51.9767 0.5H43.0729C42.2902 0.5 41.8336 0.923989 41.8336 1.70674C41.8336 2.48949 42.2902 2.91348 43.0729 2.91348H51.8788C55.9883 2.91348 58.3365 5.13127 58.3365 9.37116V18.1445C58.3365 18.9272 58.7605 19.3838 59.5433 19.3838ZM9.05593 61H17.9271C18.7098 61 19.1664 60.576 19.1664 59.7933C19.1664 59.0105 18.7098 58.5865 17.9271 58.5865H9.12116C4.88127 58.5865 2.66348 56.3687 2.66348 52.0962V43.3555C2.66348 42.5728 2.23949 42.0836 1.45674 42.0836C0.673989 42.0836 0.25 42.5728 0.25 43.3555V52.2267C0.25 57.9995 3.28315 61 9.05593 61ZM43.0729 61H51.9767C57.7495 61 60.75 57.9016 60.75 52.2267V43.3555C60.75 42.5728 60.326 42.0836 59.5433 42.0836C58.7605 42.0836 58.3365 42.5728 58.3365 43.3555V52.0962C58.3365 56.3687 55.9883 58.5865 51.8788 58.5865H43.0729C42.2902 58.5865 41.8336 59.0105 41.8336 59.7933C41.8336 60.576 42.2902 61 43.0729 61Z" fill="#4F868E"/>
<path d="M30.5009 12.374L34.0932 8.0625L36.1795 13.2721L40.9287 10.2825L41.3022 15.883L46.7428 14.5072L45.367 19.9478L50.9675 20.3213L47.9762 25.0705L53.1875 27.1568L48.876 30.7491L53.1875 34.3432L47.9762 36.4277L50.9675 41.177L45.367 41.5505L46.7428 46.9911L41.3022 45.6153L40.9287 51.2157L36.1795 48.2262L34.0932 53.4375L30.5009 49.126L26.9068 53.4375L24.8223 48.2262L20.0713 51.2157L19.6995 45.6153L14.2572 46.9911L15.633 41.5505L10.0343 41.177L13.0238 36.4277L7.8125 34.3432L12.124 30.7491L7.8125 27.1568L13.0238 25.0705L10.0343 20.3213L15.633 19.9478L14.2572 14.5072L19.6995 15.883L20.0713 10.2825L24.8223 13.2721L26.9068 8.0625L30.5009 12.374Z" fill="#4EB3B2"/>
<path d="M22.5501 30.4967C24.8257 30.4967 26.6705 28.6519 26.6705 26.3763C26.6705 24.1006 24.8257 22.2559 22.5501 22.2559C20.2745 22.2559 18.4297 24.1006 18.4297 26.3763C18.4297 28.6519 20.2745 30.4967 22.5501 30.4967Z" fill="white"/>
<path d="M22.8995 28.1359C24.352 28.1359 25.5295 26.9585 25.5295 25.506C25.5295 24.0535 24.352 22.876 22.8995 22.876C21.447 22.876 20.2695 24.0535 20.2695 25.506C20.2695 26.9585 21.447 28.1359 22.8995 28.1359Z" fill="#540522"/>
<path d="M37.0594 30.4967C39.335 30.4967 41.1798 28.6519 41.1798 26.3763C41.1798 24.1006 39.335 22.2559 37.0594 22.2559C34.7837 22.2559 32.939 24.1006 32.939 26.3763C32.939 28.6519 34.7837 30.4967 37.0594 30.4967Z" fill="white"/>
<path d="M36.7113 28.1359C38.1638 28.1359 39.3413 26.9585 39.3413 25.506C39.3413 24.0535 38.1638 22.876 36.7113 22.876C35.2588 22.876 34.0813 24.0535 34.0813 25.506C34.0813 26.9585 35.2588 28.1359 36.7113 28.1359Z" fill="#540522"/>
<path d="M28.6626 28.2472C28.6722 28.2214 28.6904 28.1995 28.7141 28.1853C28.7377 28.1711 28.7655 28.1654 28.7929 28.1691L28.8294 28.2194C28.9301 28.1882 28.9267 28.1899 28.9909 28.2577C29.0691 28.2403 29.1299 28.249 29.1334 28.3636C29.2272 28.2941 29.2255 28.2941 29.3071 28.3723C29.4096 28.3549 29.4426 28.3723 29.453 28.4453C29.4576 28.473 29.4547 28.5015 29.4446 28.5278C29.4346 28.554 29.4177 28.5771 29.3957 28.5947C29.3158 28.6468 29.2706 28.5842 29.2359 28.5269L29.1525 28.513L29.1073 28.4296C29.0948 28.4425 29.0792 28.4519 29.0621 28.457C29.0449 28.462 29.0267 28.4626 29.0092 28.4586C28.9918 28.4546 28.9756 28.4461 28.9624 28.434C28.9491 28.422 28.9392 28.4067 28.9336 28.3897C28.8693 28.4036 28.8068 28.4036 28.7999 28.3115C28.7321 28.3271 28.6765 28.3115 28.6609 28.242L28.6626 28.2472Z" fill="#6B322F"/>
<path d="M29.5207 28.6081L29.4721 28.6341C29.4008 28.5837 29.4026 28.5803 29.4391 28.4604L29.512 28.4326L29.5589 28.5143C29.6475 28.4326 29.644 28.4361 29.7153 28.5264C29.7604 28.5143 29.816 28.4882 29.8282 28.6098C29.8143 28.6254 29.7934 28.6671 29.7778 28.6636C29.6902 28.655 29.604 28.6364 29.5207 28.6081Z" fill="#6B322F"/>
<path d="M28.1317 27.698C28.1803 27.6893 28.229 27.6737 28.2741 27.6684C28.3193 27.6632 28.3784 27.7014 28.3679 27.7692C28.3619 27.803 28.3459 27.8342 28.3221 27.859C28.2983 27.8837 28.2677 27.9008 28.2342 27.9082C28.2158 27.9116 28.197 27.9116 28.1786 27.9082C28.1544 27.8795 28.1375 27.8454 28.1294 27.8088C28.1212 27.7722 28.122 27.7342 28.1317 27.698Z" fill="#6B322F"/>
<path d="M28.6821 28.2156C28.5257 28.2938 28.5327 28.1375 28.4858 28.0576C28.4458 28.0576 28.3728 28.0767 28.3867 27.9898C28.4788 27.9012 28.4858 27.9012 28.517 28.002L28.6751 28.0367C28.7359 28.0801 28.7133 28.1479 28.6751 28.2226L28.6821 28.2156Z" fill="#6B322F"/>
<path d="M28.1087 27.5586L28.1868 27.6055L28.1504 27.708L28.0409 27.7427C27.994 27.6507 27.994 27.6489 28.1087 27.5586Z" fill="#6B322F"/>
<path d="M31.8918 27.6531L31.9387 27.5732L32.0412 27.608L32.0777 27.7157C31.9874 27.7643 31.9874 27.7626 31.8918 27.6531Z" fill="#6B322F"/>
<path d="M29.8174 28.5147C29.8479 28.5114 29.878 28.5062 29.9078 28.499L29.9477 28.5998L29.8869 28.6971C29.7896 28.6623 29.7931 28.6536 29.8174 28.5147Z" fill="#6B322F"/>
<path d="M28.4471 27.8876L28.395 27.9814C28.296 27.9814 28.296 27.9814 28.3151 27.8807C28.3689 27.8338 28.4106 27.8268 28.4471 27.8876Z" fill="#6B322F"/>
<path d="M30.7687 28.5823C30.7538 28.5593 30.7473 28.532 30.7502 28.5048C30.753 28.4777 30.7651 28.4523 30.7843 28.4329C30.8051 28.4346 30.826 28.4346 30.8468 28.4329C30.8833 28.3339 30.8816 28.3356 30.9754 28.3269C31.0066 28.254 31.0483 28.2071 31.1491 28.2748C31.1491 28.1584 31.1491 28.1584 31.2585 28.1428C31.3089 28.0525 31.3419 28.0351 31.4079 28.0716C31.4326 28.0854 31.4532 28.1056 31.4675 28.13C31.4819 28.1544 31.4895 28.1822 31.4896 28.2105C31.4896 28.3043 31.4079 28.3026 31.3384 28.2922L31.2794 28.3512L31.1856 28.3373C31.187 28.3541 31.1844 28.371 31.1779 28.3866C31.1714 28.4022 31.1612 28.4159 31.1482 28.4267C31.1353 28.4374 31.1199 28.4449 31.1034 28.4484C31.0869 28.4519 31.0698 28.4513 31.0535 28.4468C31.0275 28.5058 30.9893 28.5562 30.9111 28.5093C30.8833 28.5753 30.8381 28.6083 30.7704 28.5771L30.7687 28.5823Z" fill="#6B322F"/>
<path d="M31.5706 28.1166V28.1704C31.4872 28.193 31.4854 28.1896 31.4194 28.0923C31.4194 28.0697 31.4351 28.0471 31.4438 28.0176L31.5376 28.0332C31.5376 27.9134 31.5376 27.9116 31.647 27.9203C31.6713 27.8803 31.6887 27.8195 31.786 27.8925C31.786 27.9134 31.8051 27.9568 31.786 27.9672C31.7183 28.0227 31.6463 28.0727 31.5706 28.1166Z" fill="#6B322F"/>
<path d="M30.0022 28.6032L30.0838 28.4851C30.1255 28.4295 30.1759 28.4347 30.2176 28.4851C30.2363 28.5134 30.2462 28.5467 30.2462 28.5806C30.2462 28.6146 30.2363 28.6478 30.2176 28.6762C30.2055 28.6907 30.1915 28.7036 30.1759 28.7144C30.14 28.7117 30.1053 28.7001 30.075 28.6807C30.0447 28.6613 30.0197 28.6347 30.0022 28.6032Z" fill="#6B322F"/>
<path d="M30.7545 28.5421C30.7197 28.7159 30.5964 28.6116 30.5061 28.596C30.4765 28.6255 30.447 28.6968 30.3879 28.6255C30.3879 28.497 30.3879 28.4987 30.4835 28.5369L30.6103 28.4379C30.6798 28.4171 30.7197 28.4744 30.7579 28.5474L30.7545 28.5421Z" fill="#6B322F"/>
<path d="M29.8858 28.5211L29.9762 28.502L30.0179 28.6027L29.9623 28.7C29.8685 28.6652 29.8685 28.6652 29.8858 28.5211Z" fill="#6B322F"/>
<path d="M31.6985 27.8264L31.7523 27.75L31.8513 27.7934L31.8791 27.9029C31.7801 27.9446 31.7801 27.9428 31.6985 27.8264Z" fill="#6B322F"/>
<path d="M30.3548 28.5142L30.3896 28.6149C30.3236 28.6914 30.3201 28.6914 30.2593 28.6149C30.2628 28.5368 30.2836 28.4986 30.3548 28.5142Z" fill="#6B322F"/>
<path d="M31.8876 27.6758L31.9727 27.7401C31.9623 27.8391 31.9606 27.8408 31.8633 27.8078C31.8216 27.747 31.8199 27.714 31.8876 27.6758Z" fill="#6B322F"/>
<path d="M30.813 25.3667C30.813 25.6344 30.7066 25.8911 30.5173 26.0804C30.3281 26.2697 30.0714 26.376 29.8037 26.376C29.536 26.376 29.2793 26.2697 29.09 26.0804C28.9008 25.8911 28.7944 25.6344 28.7944 25.3667C28.7944 24.8091 29.8037 23.9302 29.8037 22.9209C29.8037 23.9302 30.813 24.8091 30.813 25.3667Z" fill="#7F8A44"/>
</svg>
