<svg width="46" height="46" viewBox="26 26 48 48" fill="none" xmlns="http://www.w3.org/2000/svg">
<path d="M60.1667 33.6844C58.2027 33.6978 56.2673 34.1565 54.5063 35.0259C52.7453 35.8953 51.2045 37.1528 50 38.7036C48.7965 37.1529 47.2567 35.8955 45.4965 35.026C43.7364 34.1566 41.8018 33.6979 39.8385 33.6844C32.5156 33.6844 26.5625 39.9844 26.5625 47.7424V63.1125C26.5625 63.941 26.8917 64.7356 27.4778 65.3215C28.0638 65.9073 28.8587 66.2365 29.6875 66.2365C30.5163 66.2365 31.3111 65.9073 31.8972 65.3215C32.4833 64.7356 32.8125 63.941 32.8125 63.1125V47.732C32.8125 43.4208 35.974 39.922 39.8594 39.922C43.7448 39.922 46.9063 43.4313 46.9063 47.732V63.102C46.9063 63.9306 47.2355 64.7252 47.8215 65.311C48.4076 65.8969 49.2025 66.226 50.0313 66.226C50.8601 66.226 51.6549 65.8969 52.241 65.311C52.827 64.7252 53.1563 63.9306 53.1563 63.102V47.732C53.1563 43.4208 56.3177 39.922 60.2031 39.922C64.0885 39.922 67.25 43.4313 67.25 47.732V63.102C67.25 63.9306 67.5792 64.7252 68.1653 65.311C68.7513 65.8969 69.5462 66.226 70.375 66.226C71.2038 66.226 71.9987 65.8969 72.5847 65.311C73.1708 64.7252 73.5 63.9306 73.5 63.102V47.732C73.4427 39.9844 67.4896 33.6844 60.1667 33.6844Z" fill="#EBEAEF"/>
</svg>
