<svg width="9" height="57" viewBox="0 0 9 57" fill="none" xmlns="http://www.w3.org/2000/svg">
<path d="M4.29787 8.60156C6.67312 8.60156 8.59863 6.67603 8.59863 4.30077C8.59863 1.92552 6.67312 0 4.29787 0C1.92261 0 -0.00292969 1.92552 -0.00292969 4.30077C-0.00292969 6.67603 1.92261 8.60156 4.29787 8.60156Z" fill="white"/>
<path d="M4.29784 20.5849C6.27208 20.5849 7.8725 18.9845 7.8725 17.0102C7.8725 15.036 6.27208 13.4355 4.29784 13.4355C2.3236 13.4355 0.723145 15.036 0.723145 17.0102C0.723145 18.9845 2.3236 20.5849 4.29784 20.5849Z" fill="white"/>
<path d="M4.2981 32.5581C5.86852 32.5581 7.14158 31.285 7.14158 29.7146C7.14158 28.1442 5.86852 26.8711 4.2981 26.8711C2.72768 26.8711 1.45459 28.1442 1.45459 29.7146C1.45459 31.285 2.72768 32.5581 4.2981 32.5581Z" fill="white"/>
<path d="M4.29804 44.5356C5.46744 44.5356 6.41542 43.5876 6.41542 42.4182C6.41542 41.2488 5.46744 40.3008 4.29804 40.3008C3.12864 40.3008 2.18066 41.2488 2.18066 42.4182C2.18066 43.5876 3.12864 44.5356 4.29804 44.5356Z" fill="white"/>
<path d="M4.29801 56.5189C5.0664 56.5189 5.68929 55.896 5.68929 55.1276C5.68929 54.3592 5.0664 53.7363 4.29801 53.7363C3.52963 53.7363 2.90674 54.3592 2.90674 55.1276C2.90674 55.896 3.52963 56.5189 4.29801 56.5189Z" fill="white"/>
</svg>
