<svg width="24" height="24" viewBox="0 0 24 24" fill="none" xmlns="http://www.w3.org/2000/svg">
<path d="M15 7.00244C16.1046 7.00244 17 7.89787 17 9.00244M21 9.00244C21 12.3161 18.3137 15.0024 15 15.0024C14.3938 15.0024 13.8087 14.9125 13.2571 14.7454L11 17.0024H9V19.0024H7V21.0024H4C3.44772 21.0024 3 20.5547 3 20.0024V17.4167C3 17.1514 3.10536 16.8971 3.29289 16.7095L9.25707 10.7454C9.08989 10.1938 9 9.60861 9 9.00244C9 5.68873 11.6863 3.00244 15 3.00244C18.3137 3.00244 21 5.68873 21 9.00244Z" stroke="currentColor" stroke-width="2" stroke-linecap="round" stroke-linejoin="round"/>
</svg>
